<mxfile host="65bd71144e">
    <diagram id="hR28uiHc0oPCcJALtGL0" name="Page-1">
        <mxGraphModel dx="1469" dy="1378" grid="0" gridSize="10" guides="1" tooltips="1" connect="1" arrows="1" fold="1" page="1" pageScale="1" pageWidth="4681" pageHeight="3300" background="#FFFFFF" math="0" shadow="0">
            <root>
                <mxCell id="0"/>
                <mxCell id="1" parent="0"/>
                <mxCell id="2" value="USER" style="shape=table;startSize=30;container=1;collapsible=0;childLayout=tableLayout;strokeColor=#b85450;fontSize=16;fillColor=#f8cecc;strokeWidth=3;perimeterSpacing=3;shadow=1;swimlaneFillColor=#4D4D4D;fillStyle=auto;" parent="1" vertex="1">
                    <mxGeometry x="960" y="304" width="280" height="497.76923076923015" as="geometry"/>
                </mxCell>
                <mxCell id="3" value="" style="shape=tableRow;horizontal=0;startSize=0;swimlaneHead=0;swimlaneBody=0;strokeColor=#FFCCCC;top=0;left=0;bottom=0;right=0;collapsible=0;dropTarget=0;fillColor=#f8cecc;points=[[0,0.5],[1,0.5]];portConstraint=eastwest;fontSize=16;perimeterSpacing=3;strokeWidth=3;swimlaneFillColor=#4D4D4D;" parent="2" vertex="1">
                    <mxGeometry y="30" width="280" height="39" as="geometry"/>
                </mxCell>
                <mxCell id="4" value="INTEGER" style="shape=partialRectangle;html=1;whiteSpace=wrap;connectable=0;strokeColor=#FFCCCC;overflow=hidden;fillColor=#f8cecc;top=0;left=0;bottom=0;right=0;pointerEvents=1;fontSize=16;perimeterSpacing=3;strokeWidth=3;swimlaneFillColor=#4D4D4D;" parent="3" vertex="1">
                    <mxGeometry width="84" height="39" as="geometry">
                        <mxRectangle width="84" height="39" as="alternateBounds"/>
                    </mxGeometry>
                </mxCell>
                <mxCell id="5" value="id_user" style="shape=partialRectangle;html=1;whiteSpace=wrap;connectable=0;strokeColor=#FFCCCC;overflow=hidden;fillColor=#f8cecc;top=0;left=0;bottom=0;right=0;pointerEvents=1;fontSize=16;perimeterSpacing=3;strokeWidth=3;swimlaneFillColor=#4D4D4D;" parent="3" vertex="1">
                    <mxGeometry x="84" width="111" height="39" as="geometry">
                        <mxRectangle width="111" height="39" as="alternateBounds"/>
                    </mxGeometry>
                </mxCell>
                <mxCell id="6" value="PK" style="shape=partialRectangle;html=1;whiteSpace=wrap;connectable=0;strokeColor=#FFCCCC;overflow=hidden;fillColor=#f8cecc;top=0;left=0;bottom=0;right=0;pointerEvents=1;fontSize=16;perimeterSpacing=3;strokeWidth=3;swimlaneFillColor=#4D4D4D;" parent="3" vertex="1">
                    <mxGeometry x="195" width="85" height="39" as="geometry">
                        <mxRectangle width="85" height="39" as="alternateBounds"/>
                    </mxGeometry>
                </mxCell>
                <mxCell id="494" value="" style="shape=tableRow;horizontal=0;startSize=0;swimlaneHead=0;swimlaneBody=0;strokeColor=#FFCCCC;top=0;left=0;bottom=0;right=0;collapsible=0;dropTarget=0;fillColor=#f8cecc;points=[[0,0.5],[1,0.5]];portConstraint=eastwest;fontSize=16;perimeterSpacing=3;strokeWidth=3;swimlaneFillColor=#4D4D4D;" parent="2" vertex="1">
                    <mxGeometry y="69" width="280" height="39" as="geometry"/>
                </mxCell>
                <mxCell id="495" value="INTEGER" style="shape=partialRectangle;html=1;whiteSpace=wrap;connectable=0;strokeColor=#FFCCCC;overflow=hidden;fillColor=#f8cecc;top=0;left=0;bottom=0;right=0;pointerEvents=1;fontSize=16;perimeterSpacing=3;strokeWidth=3;swimlaneFillColor=#4D4D4D;" parent="494" vertex="1">
                    <mxGeometry width="84" height="39" as="geometry">
                        <mxRectangle width="84" height="39" as="alternateBounds"/>
                    </mxGeometry>
                </mxCell>
                <mxCell id="496" value="id_role" style="shape=partialRectangle;html=1;whiteSpace=wrap;connectable=0;strokeColor=#FFCCCC;overflow=hidden;fillColor=#f8cecc;top=0;left=0;bottom=0;right=0;pointerEvents=1;fontSize=16;perimeterSpacing=3;strokeWidth=3;swimlaneFillColor=#4D4D4D;" parent="494" vertex="1">
                    <mxGeometry x="84" width="111" height="39" as="geometry">
                        <mxRectangle width="111" height="39" as="alternateBounds"/>
                    </mxGeometry>
                </mxCell>
                <mxCell id="497" value="FK" style="shape=partialRectangle;html=1;whiteSpace=wrap;connectable=0;strokeColor=#FFCCCC;overflow=hidden;fillColor=#f8cecc;top=0;left=0;bottom=0;right=0;pointerEvents=1;fontSize=16;perimeterSpacing=3;strokeWidth=3;swimlaneFillColor=#4D4D4D;" parent="494" vertex="1">
                    <mxGeometry x="195" width="85" height="39" as="geometry">
                        <mxRectangle width="85" height="39" as="alternateBounds"/>
                    </mxGeometry>
                </mxCell>
                <mxCell id="11" value="" style="shape=tableRow;horizontal=0;startSize=0;swimlaneHead=0;swimlaneBody=0;strokeColor=#FFCCCC;top=0;left=0;bottom=0;right=0;collapsible=0;dropTarget=0;fillColor=#f8cecc;points=[[0,0.5],[1,0.5]];portConstraint=eastwest;fontSize=16;perimeterSpacing=3;strokeWidth=3;swimlaneFillColor=#4D4D4D;" parent="2" vertex="1">
                    <mxGeometry y="108" width="280" height="39" as="geometry"/>
                </mxCell>
                <mxCell id="12" value="TEXT" style="shape=partialRectangle;html=1;whiteSpace=wrap;connectable=0;strokeColor=#FFCCCC;overflow=hidden;fillColor=#f8cecc;top=0;left=0;bottom=0;right=0;pointerEvents=1;fontSize=16;perimeterSpacing=3;strokeWidth=3;swimlaneFillColor=#4D4D4D;" parent="11" vertex="1">
                    <mxGeometry width="84" height="39" as="geometry">
                        <mxRectangle width="84" height="39" as="alternateBounds"/>
                    </mxGeometry>
                </mxCell>
                <mxCell id="13" value="firstname" style="shape=partialRectangle;html=1;whiteSpace=wrap;connectable=0;strokeColor=#FFCCCC;overflow=hidden;fillColor=#f8cecc;top=0;left=0;bottom=0;right=0;pointerEvents=1;fontSize=16;perimeterSpacing=3;strokeWidth=3;swimlaneFillColor=#4D4D4D;" parent="11" vertex="1">
                    <mxGeometry x="84" width="111" height="39" as="geometry">
                        <mxRectangle width="111" height="39" as="alternateBounds"/>
                    </mxGeometry>
                </mxCell>
                <mxCell id="14" value="&lt;span style=&quot;color: rgb(0, 0, 0);&quot;&gt;&lt;font style=&quot;font-size: 12px;&quot;&gt;&lt;b&gt;NOT NULL&lt;/b&gt;&lt;/font&gt;&lt;/span&gt;" style="shape=partialRectangle;html=1;whiteSpace=wrap;connectable=0;strokeColor=#FFCCCC;overflow=hidden;fillColor=#f8cecc;top=0;left=0;bottom=0;right=0;pointerEvents=1;fontSize=16;perimeterSpacing=3;strokeWidth=3;swimlaneFillColor=#4D4D4D;" parent="11" vertex="1">
                    <mxGeometry x="195" width="85" height="39" as="geometry">
                        <mxRectangle width="85" height="39" as="alternateBounds"/>
                    </mxGeometry>
                </mxCell>
                <mxCell id="7" value="" style="shape=tableRow;horizontal=0;startSize=0;swimlaneHead=0;swimlaneBody=0;strokeColor=#FFCCCC;top=0;left=0;bottom=0;right=0;collapsible=0;dropTarget=0;fillColor=#f8cecc;points=[[0,0.5],[1,0.5]];portConstraint=eastwest;fontSize=16;perimeterSpacing=3;strokeWidth=3;swimlaneFillColor=#4D4D4D;" parent="2" vertex="1">
                    <mxGeometry y="147" width="280" height="38" as="geometry"/>
                </mxCell>
                <mxCell id="8" value="TEXT" style="shape=partialRectangle;html=1;whiteSpace=wrap;connectable=0;strokeColor=#FFCCCC;overflow=hidden;fillColor=#f8cecc;top=0;left=0;bottom=0;right=0;pointerEvents=1;fontSize=16;perimeterSpacing=3;strokeWidth=3;swimlaneFillColor=#4D4D4D;" parent="7" vertex="1">
                    <mxGeometry width="84" height="38" as="geometry">
                        <mxRectangle width="84" height="38" as="alternateBounds"/>
                    </mxGeometry>
                </mxCell>
                <mxCell id="9" value="lastname" style="shape=partialRectangle;html=1;whiteSpace=wrap;connectable=0;strokeColor=#FFCCCC;overflow=hidden;fillColor=#f8cecc;top=0;left=0;bottom=0;right=0;pointerEvents=1;fontSize=16;perimeterSpacing=3;strokeWidth=3;swimlaneFillColor=#4D4D4D;" parent="7" vertex="1">
                    <mxGeometry x="84" width="111" height="38" as="geometry">
                        <mxRectangle width="111" height="38" as="alternateBounds"/>
                    </mxGeometry>
                </mxCell>
                <mxCell id="10" value="&lt;span style=&quot;color: rgb(0, 0, 0);&quot;&gt;&lt;font style=&quot;font-size: 12px;&quot;&gt;&lt;b&gt;NOT NULL&lt;/b&gt;&lt;/font&gt;&lt;/span&gt;" style="shape=partialRectangle;html=1;whiteSpace=wrap;connectable=0;strokeColor=#FFCCCC;overflow=hidden;fillColor=#f8cecc;top=0;left=0;bottom=0;right=0;pointerEvents=1;fontSize=16;perimeterSpacing=3;strokeWidth=3;swimlaneFillColor=#4D4D4D;" parent="7" vertex="1">
                    <mxGeometry x="195" width="85" height="38" as="geometry">
                        <mxRectangle width="85" height="38" as="alternateBounds"/>
                    </mxGeometry>
                </mxCell>
                <mxCell id="15" value="" style="shape=tableRow;horizontal=0;startSize=0;swimlaneHead=0;swimlaneBody=0;strokeColor=#FFCCCC;top=0;left=0;bottom=0;right=0;collapsible=0;dropTarget=0;fillColor=#f8cecc;points=[[0,0.5],[1,0.5]];portConstraint=eastwest;fontSize=16;perimeterSpacing=3;strokeWidth=3;swimlaneFillColor=#4D4D4D;" parent="2" vertex="1">
                    <mxGeometry y="185" width="280" height="38" as="geometry"/>
                </mxCell>
                <mxCell id="16" value="TEXT" style="shape=partialRectangle;html=1;whiteSpace=wrap;connectable=0;strokeColor=#FFCCCC;overflow=hidden;fillColor=#f8cecc;top=0;left=0;bottom=0;right=0;pointerEvents=1;fontSize=16;perimeterSpacing=3;strokeWidth=3;swimlaneFillColor=#4D4D4D;" parent="15" vertex="1">
                    <mxGeometry width="84" height="38" as="geometry">
                        <mxRectangle width="84" height="38" as="alternateBounds"/>
                    </mxGeometry>
                </mxCell>
                <mxCell id="17" value="username" style="shape=partialRectangle;html=1;whiteSpace=wrap;connectable=0;strokeColor=#FFCCCC;overflow=hidden;fillColor=#f8cecc;top=0;left=0;bottom=0;right=0;pointerEvents=1;fontSize=16;perimeterSpacing=3;strokeWidth=3;swimlaneFillColor=#4D4D4D;" parent="15" vertex="1">
                    <mxGeometry x="84" width="111" height="38" as="geometry">
                        <mxRectangle width="111" height="38" as="alternateBounds"/>
                    </mxGeometry>
                </mxCell>
                <mxCell id="18" value="&lt;b&gt;&lt;font style=&quot;font-size: 12px;&quot;&gt;UK&amp;nbsp;&lt;/font&gt;&lt;span style=&quot;color: rgb(63, 63, 63); font-size: 12px;&quot;&gt;NOT NULL&lt;/span&gt;&lt;/b&gt;" style="shape=partialRectangle;html=1;whiteSpace=wrap;connectable=0;strokeColor=#FFCCCC;overflow=hidden;fillColor=#f8cecc;top=0;left=0;bottom=0;right=0;pointerEvents=1;fontSize=16;perimeterSpacing=3;strokeWidth=3;swimlaneFillColor=#4D4D4D;" parent="15" vertex="1">
                    <mxGeometry x="195" width="85" height="38" as="geometry">
                        <mxRectangle width="85" height="38" as="alternateBounds"/>
                    </mxGeometry>
                </mxCell>
                <mxCell id="19" value="" style="shape=tableRow;horizontal=0;startSize=0;swimlaneHead=0;swimlaneBody=0;strokeColor=#FFCCCC;top=0;left=0;bottom=0;right=0;collapsible=0;dropTarget=0;fillColor=#f8cecc;points=[[0,0.5],[1,0.5]];portConstraint=eastwest;fontSize=16;perimeterSpacing=3;strokeWidth=3;swimlaneFillColor=#4D4D4D;" parent="2" vertex="1">
                    <mxGeometry y="223" width="280" height="39" as="geometry"/>
                </mxCell>
                <mxCell id="20" value="TEXT" style="shape=partialRectangle;html=1;whiteSpace=wrap;connectable=0;strokeColor=#FFCCCC;overflow=hidden;fillColor=#f8cecc;top=0;left=0;bottom=0;right=0;pointerEvents=1;fontSize=16;perimeterSpacing=3;strokeWidth=3;swimlaneFillColor=#4D4D4D;" parent="19" vertex="1">
                    <mxGeometry width="84" height="39" as="geometry">
                        <mxRectangle width="84" height="39" as="alternateBounds"/>
                    </mxGeometry>
                </mxCell>
                <mxCell id="21" value="email" style="shape=partialRectangle;html=1;whiteSpace=wrap;connectable=0;strokeColor=#FFCCCC;overflow=hidden;fillColor=#f8cecc;top=0;left=0;bottom=0;right=0;pointerEvents=1;fontSize=16;perimeterSpacing=3;strokeWidth=3;swimlaneFillColor=#4D4D4D;" parent="19" vertex="1">
                    <mxGeometry x="84" width="111" height="39" as="geometry">
                        <mxRectangle width="111" height="39" as="alternateBounds"/>
                    </mxGeometry>
                </mxCell>
                <mxCell id="22" value="&lt;b&gt;&lt;font style=&quot;font-size: 12px;&quot;&gt;UK&amp;nbsp;&lt;/font&gt;&lt;span style=&quot;font-size: 12px; color: rgb(63, 63, 63);&quot;&gt;NOT NULL&lt;/span&gt;&lt;/b&gt;" style="shape=partialRectangle;html=1;whiteSpace=wrap;connectable=0;strokeColor=#FFCCCC;overflow=hidden;fillColor=#f8cecc;top=0;left=0;bottom=0;right=0;pointerEvents=1;fontSize=16;perimeterSpacing=3;strokeWidth=3;swimlaneFillColor=#4D4D4D;" parent="19" vertex="1">
                    <mxGeometry x="195" width="85" height="39" as="geometry">
                        <mxRectangle width="85" height="39" as="alternateBounds"/>
                    </mxGeometry>
                </mxCell>
                <mxCell id="23" value="" style="shape=tableRow;horizontal=0;startSize=0;swimlaneHead=0;swimlaneBody=0;strokeColor=#FFCCCC;top=0;left=0;bottom=0;right=0;collapsible=0;dropTarget=0;fillColor=#f8cecc;points=[[0,0.5],[1,0.5]];portConstraint=eastwest;fontSize=16;perimeterSpacing=3;strokeWidth=3;swimlaneFillColor=#4D4D4D;" parent="2" vertex="1">
                    <mxGeometry y="262" width="280" height="38" as="geometry"/>
                </mxCell>
                <mxCell id="24" value="TEXT" style="shape=partialRectangle;html=1;whiteSpace=wrap;connectable=0;strokeColor=#666666;overflow=hidden;fillColor=#f8cecc;top=0;left=0;bottom=0;right=0;pointerEvents=1;fontSize=16;perimeterSpacing=3;strokeWidth=3;swimlaneFillColor=#4D4D4D;" parent="23" vertex="1">
                    <mxGeometry width="84" height="38" as="geometry">
                        <mxRectangle width="84" height="38" as="alternateBounds"/>
                    </mxGeometry>
                </mxCell>
                <mxCell id="25" value="password" style="shape=partialRectangle;html=1;whiteSpace=wrap;connectable=0;strokeColor=#FFCCCC;overflow=hidden;fillColor=#f8cecc;top=0;left=0;bottom=0;right=0;pointerEvents=1;fontSize=16;perimeterSpacing=3;strokeWidth=3;swimlaneFillColor=#4D4D4D;" parent="23" vertex="1">
                    <mxGeometry x="84" width="111" height="38" as="geometry">
                        <mxRectangle width="111" height="38" as="alternateBounds"/>
                    </mxGeometry>
                </mxCell>
                <mxCell id="26" value="&lt;span style=&quot;font-size: 12px; color: rgb(63, 63, 63);&quot;&gt;&lt;b&gt;NOT NULL&lt;/b&gt;&lt;/span&gt;" style="shape=partialRectangle;html=1;whiteSpace=wrap;connectable=0;strokeColor=#FFCCCC;overflow=hidden;fillColor=#f8cecc;top=0;left=0;bottom=0;right=0;pointerEvents=1;fontSize=16;perimeterSpacing=3;strokeWidth=3;swimlaneFillColor=#4D4D4D;" parent="23" vertex="1">
                    <mxGeometry x="195" width="85" height="38" as="geometry">
                        <mxRectangle width="85" height="38" as="alternateBounds"/>
                    </mxGeometry>
                </mxCell>
                <mxCell id="86" value="" style="shape=tableRow;horizontal=0;startSize=0;swimlaneHead=0;swimlaneBody=0;strokeColor=#FFCCCC;top=0;left=0;bottom=0;right=0;collapsible=0;dropTarget=0;fillColor=#f8cecc;points=[[0,0.5],[1,0.5]];portConstraint=eastwest;fontSize=16;perimeterSpacing=3;strokeWidth=3;swimlaneFillColor=#4D4D4D;" parent="2" vertex="1">
                    <mxGeometry y="300" width="280" height="82" as="geometry"/>
                </mxCell>
                <mxCell id="87" value="DATE" style="shape=partialRectangle;html=1;whiteSpace=wrap;connectable=0;strokeColor=#FFCCCC;overflow=hidden;fillColor=#f8cecc;top=0;left=0;bottom=0;right=0;pointerEvents=1;fontSize=16;perimeterSpacing=3;strokeWidth=3;swimlaneFillColor=#4D4D4D;" parent="86" vertex="1">
                    <mxGeometry width="84" height="82" as="geometry">
                        <mxRectangle width="84" height="82" as="alternateBounds"/>
                    </mxGeometry>
                </mxCell>
                <mxCell id="88" value="connected_at" style="shape=partialRectangle;html=1;whiteSpace=wrap;connectable=0;strokeColor=#FFCCCC;overflow=hidden;fillColor=#f8cecc;top=0;left=0;bottom=0;right=0;pointerEvents=1;fontSize=16;perimeterSpacing=3;strokeWidth=3;swimlaneFillColor=#4D4D4D;" parent="86" vertex="1">
                    <mxGeometry x="84" width="111" height="82" as="geometry">
                        <mxRectangle width="111" height="82" as="alternateBounds"/>
                    </mxGeometry>
                </mxCell>
                <mxCell id="89" value="&lt;span style=&quot;color: rgb(0, 0, 0);&quot;&gt;&lt;font style=&quot;font-size: 12px;&quot;&gt;&lt;b&gt;NOT NULL&lt;/b&gt;&lt;/font&gt;&lt;/span&gt;&lt;div&gt;&lt;span style=&quot;color: rgb(0, 0, 0);&quot;&gt;&lt;font style=&quot;font-size: 12px;&quot;&gt;default&lt;b&gt;, &lt;/b&gt;CURRENT&lt;b&gt; &lt;/b&gt;DATE&lt;/font&gt;&lt;/span&gt;&lt;/div&gt;" style="shape=partialRectangle;html=1;whiteSpace=wrap;connectable=0;strokeColor=#FFCCCC;overflow=hidden;fillColor=#f8cecc;top=0;left=0;bottom=0;right=0;pointerEvents=1;fontSize=16;perimeterSpacing=3;strokeWidth=3;swimlaneFillColor=#4D4D4D;" parent="86" vertex="1">
                    <mxGeometry x="195" width="85" height="82" as="geometry">
                        <mxRectangle width="85" height="82" as="alternateBounds"/>
                    </mxGeometry>
                </mxCell>
                <mxCell id="530" value="" style="shape=tableRow;horizontal=0;startSize=0;swimlaneHead=0;swimlaneBody=0;strokeColor=#FFCCCC;top=0;left=0;bottom=0;right=0;collapsible=0;dropTarget=0;fillColor=#f8cecc;points=[[0,0.5],[1,0.5]];portConstraint=eastwest;fontSize=16;perimeterSpacing=3;strokeWidth=3;swimlaneFillColor=#4D4D4D;" parent="2" vertex="1">
                    <mxGeometry y="382" width="280" height="79" as="geometry"/>
                </mxCell>
                <mxCell id="531" value="DATE" style="shape=partialRectangle;html=1;whiteSpace=wrap;connectable=0;strokeColor=#FFCCCC;overflow=hidden;fillColor=#f8cecc;top=0;left=0;bottom=0;right=0;pointerEvents=1;fontSize=16;perimeterSpacing=3;strokeWidth=3;swimlaneFillColor=#4D4D4D;" parent="530" vertex="1">
                    <mxGeometry width="84" height="79" as="geometry">
                        <mxRectangle width="84" height="79" as="alternateBounds"/>
                    </mxGeometry>
                </mxCell>
                <mxCell id="532" value="created_at" style="shape=partialRectangle;html=1;whiteSpace=wrap;connectable=0;strokeColor=#FFCCCC;overflow=hidden;fillColor=#f8cecc;top=0;left=0;bottom=0;right=0;pointerEvents=1;fontSize=16;perimeterSpacing=3;strokeWidth=3;swimlaneFillColor=#4D4D4D;" parent="530" vertex="1">
                    <mxGeometry x="84" width="111" height="79" as="geometry">
                        <mxRectangle width="111" height="79" as="alternateBounds"/>
                    </mxGeometry>
                </mxCell>
                <mxCell id="533" value="&lt;span style=&quot;color: rgb(0, 0, 0);&quot;&gt;&lt;font style=&quot;font-size: 12px;&quot;&gt;&lt;b&gt;NOT NULL&lt;/b&gt;&lt;/font&gt;&lt;/span&gt;&lt;div&gt;&lt;span style=&quot;color: rgb(0, 0, 0);&quot;&gt;&lt;font style=&quot;font-size: 12px;&quot;&gt;default, CURRENT DATE&lt;/font&gt;&lt;/span&gt;&lt;/div&gt;" style="shape=partialRectangle;html=1;whiteSpace=wrap;connectable=0;strokeColor=#FFCCCC;overflow=hidden;fillColor=#f8cecc;top=0;left=0;bottom=0;right=0;pointerEvents=1;fontSize=16;perimeterSpacing=3;strokeWidth=3;swimlaneFillColor=#4D4D4D;" parent="530" vertex="1">
                    <mxGeometry x="195" width="85" height="79" as="geometry">
                        <mxRectangle width="85" height="79" as="alternateBounds"/>
                    </mxGeometry>
                </mxCell>
                <mxCell id="466" value="" style="shape=tableRow;horizontal=0;startSize=0;swimlaneHead=0;swimlaneBody=0;strokeColor=#FFCCCC;top=0;left=0;bottom=0;right=0;collapsible=0;dropTarget=0;fillColor=#f8cecc;points=[[0,0.5],[1,0.5]];portConstraint=eastwest;fontSize=16;perimeterSpacing=3;strokeWidth=3;swimlaneFillColor=#4D4D4D;" parent="2" vertex="1">
                    <mxGeometry y="461" width="280" height="37" as="geometry"/>
                </mxCell>
                <mxCell id="467" value="DATE" style="shape=partialRectangle;html=1;whiteSpace=wrap;connectable=0;strokeColor=#FFCCCC;overflow=hidden;fillColor=#f8cecc;top=0;left=0;bottom=0;right=0;pointerEvents=1;fontSize=16;perimeterSpacing=3;strokeWidth=3;swimlaneFillColor=#4D4D4D;" parent="466" vertex="1">
                    <mxGeometry width="84" height="37" as="geometry">
                        <mxRectangle width="84" height="37" as="alternateBounds"/>
                    </mxGeometry>
                </mxCell>
                <mxCell id="468" value="deleted_at" style="shape=partialRectangle;html=1;whiteSpace=wrap;connectable=0;strokeColor=#FFCCCC;overflow=hidden;fillColor=#f8cecc;top=0;left=0;bottom=0;right=0;pointerEvents=1;fontSize=16;perimeterSpacing=3;strokeWidth=3;swimlaneFillColor=#4D4D4D;" parent="466" vertex="1">
                    <mxGeometry x="84" width="111" height="37" as="geometry">
                        <mxRectangle width="111" height="37" as="alternateBounds"/>
                    </mxGeometry>
                </mxCell>
                <mxCell id="469" value="&lt;font style=&quot;font-size: 12px;&quot;&gt;&lt;b&gt;NULL&lt;/b&gt;&lt;/font&gt;" style="shape=partialRectangle;html=1;whiteSpace=wrap;connectable=0;strokeColor=#FFCCCC;overflow=hidden;fillColor=#f8cecc;top=0;left=0;bottom=0;right=0;pointerEvents=1;fontSize=16;perimeterSpacing=3;strokeWidth=3;swimlaneFillColor=#4D4D4D;" parent="466" vertex="1">
                    <mxGeometry x="195" width="85" height="37" as="geometry">
                        <mxRectangle width="85" height="37" as="alternateBounds"/>
                    </mxGeometry>
                </mxCell>
                <mxCell id="369" value="" style="rounded=1;whiteSpace=wrap;html=1;dashed=1;" parent="1" vertex="1">
                    <mxGeometry x="30" y="663" width="360" height="492" as="geometry"/>
                </mxCell>
                <mxCell id="27" value="ROLE" style="shape=table;startSize=30;container=1;collapsible=0;childLayout=tableLayout;strokeColor=#6c8ebf;fontSize=16;fillColor=#dae8fc;strokeWidth=2;perimeterSpacing=3;shadow=1;rounded=0;swimlaneLine=1;fillStyle=auto;" parent="1" vertex="1">
                    <mxGeometry x="442" y="360" width="268" height="221.7895927601807" as="geometry"/>
                </mxCell>
                <mxCell id="28" value="" style="shape=tableRow;horizontal=0;startSize=0;swimlaneHead=0;swimlaneBody=0;strokeColor=#6c8ebf;top=0;left=0;bottom=0;right=0;collapsible=0;dropTarget=0;fillColor=#dae8fc;points=[[0,0.5],[1,0.5]];portConstraint=eastwest;fontSize=16;strokeWidth=3;perimeterSpacing=2;shadow=1;" parent="27" vertex="1">
                    <mxGeometry y="30" width="268" height="41" as="geometry"/>
                </mxCell>
                <mxCell id="29" value="INTEGER" style="shape=partialRectangle;html=1;whiteSpace=wrap;connectable=0;strokeColor=#6c8ebf;overflow=hidden;fillColor=#dae8fc;top=0;left=0;bottom=0;right=0;pointerEvents=1;fontSize=16;strokeWidth=3;perimeterSpacing=2;shadow=1;" parent="28" vertex="1">
                    <mxGeometry width="79" height="41" as="geometry">
                        <mxRectangle width="79" height="41" as="alternateBounds"/>
                    </mxGeometry>
                </mxCell>
                <mxCell id="30" value="id_role" style="shape=partialRectangle;html=1;whiteSpace=wrap;connectable=0;strokeColor=#6c8ebf;overflow=hidden;fillColor=#dae8fc;top=0;left=0;bottom=0;right=0;pointerEvents=1;fontSize=16;strokeWidth=3;perimeterSpacing=2;shadow=1;" parent="28" vertex="1">
                    <mxGeometry x="79" width="103" height="41" as="geometry">
                        <mxRectangle width="103" height="41" as="alternateBounds"/>
                    </mxGeometry>
                </mxCell>
                <mxCell id="31" value="PK" style="shape=partialRectangle;html=1;whiteSpace=wrap;connectable=0;strokeColor=#6c8ebf;overflow=hidden;fillColor=#dae8fc;top=0;left=0;bottom=0;right=0;pointerEvents=1;fontSize=16;strokeWidth=3;perimeterSpacing=2;shadow=1;" parent="28" vertex="1">
                    <mxGeometry x="182" width="86" height="41" as="geometry">
                        <mxRectangle width="86" height="41" as="alternateBounds"/>
                    </mxGeometry>
                </mxCell>
                <mxCell id="32" value="" style="shape=tableRow;horizontal=0;startSize=0;swimlaneHead=0;swimlaneBody=0;strokeColor=#6c8ebf;top=0;left=0;bottom=0;right=0;collapsible=0;dropTarget=0;fillColor=#dae8fc;points=[[0,0.5],[1,0.5]];portConstraint=eastwest;fontSize=16;strokeWidth=3;perimeterSpacing=2;shadow=1;" parent="27" vertex="1">
                    <mxGeometry y="71" width="268" height="30" as="geometry"/>
                </mxCell>
                <mxCell id="33" value="TEXT" style="shape=partialRectangle;html=1;whiteSpace=wrap;connectable=0;strokeColor=#6c8ebf;overflow=hidden;fillColor=#dae8fc;top=0;left=0;bottom=0;right=0;pointerEvents=1;fontSize=16;strokeWidth=3;perimeterSpacing=2;shadow=1;" parent="32" vertex="1">
                    <mxGeometry width="79" height="30" as="geometry">
                        <mxRectangle width="79" height="30" as="alternateBounds"/>
                    </mxGeometry>
                </mxCell>
                <mxCell id="34" value="name" style="shape=partialRectangle;html=1;whiteSpace=wrap;connectable=0;strokeColor=#6c8ebf;overflow=hidden;fillColor=#dae8fc;top=0;left=0;bottom=0;right=0;pointerEvents=1;fontSize=16;strokeWidth=3;perimeterSpacing=2;shadow=1;" parent="32" vertex="1">
                    <mxGeometry x="79" width="103" height="30" as="geometry">
                        <mxRectangle width="103" height="30" as="alternateBounds"/>
                    </mxGeometry>
                </mxCell>
                <mxCell id="35" value="&lt;font style=&quot;font-size: 12px;&quot;&gt;&lt;b&gt;UK&lt;/b&gt;&lt;/font&gt;" style="shape=partialRectangle;html=1;whiteSpace=wrap;connectable=0;strokeColor=#6c8ebf;overflow=hidden;fillColor=#dae8fc;top=0;left=0;bottom=0;right=0;pointerEvents=1;fontSize=16;strokeWidth=3;perimeterSpacing=2;shadow=1;" parent="32" vertex="1">
                    <mxGeometry x="182" width="86" height="30" as="geometry">
                        <mxRectangle width="86" height="30" as="alternateBounds"/>
                    </mxGeometry>
                </mxCell>
                <mxCell id="36" value="" style="shape=tableRow;horizontal=0;startSize=0;swimlaneHead=0;swimlaneBody=0;strokeColor=#6c8ebf;top=0;left=0;bottom=0;right=0;collapsible=0;dropTarget=0;fillColor=#dae8fc;points=[[0,0.5],[1,0.5]];portConstraint=eastwest;fontSize=16;strokeWidth=3;perimeterSpacing=2;shadow=1;" parent="27" vertex="1">
                    <mxGeometry y="101" width="268" height="33" as="geometry"/>
                </mxCell>
                <mxCell id="37" value="TEXT" style="shape=partialRectangle;html=1;whiteSpace=wrap;connectable=0;strokeColor=#6c8ebf;overflow=hidden;fillColor=#dae8fc;top=0;left=0;bottom=0;right=0;pointerEvents=1;fontSize=16;strokeWidth=3;perimeterSpacing=2;shadow=1;" parent="36" vertex="1">
                    <mxGeometry width="79" height="33" as="geometry">
                        <mxRectangle width="79" height="33" as="alternateBounds"/>
                    </mxGeometry>
                </mxCell>
                <mxCell id="38" value="description" style="shape=partialRectangle;html=1;whiteSpace=wrap;connectable=0;strokeColor=#6c8ebf;overflow=hidden;fillColor=#dae8fc;top=0;left=0;bottom=0;right=0;pointerEvents=1;fontSize=16;strokeWidth=3;perimeterSpacing=2;shadow=1;" parent="36" vertex="1">
                    <mxGeometry x="79" width="103" height="33" as="geometry">
                        <mxRectangle width="103" height="33" as="alternateBounds"/>
                    </mxGeometry>
                </mxCell>
                <mxCell id="39" value="&lt;span style=&quot;color: rgb(0, 0, 0);&quot;&gt;&lt;font style=&quot;font-size: 12px;&quot;&gt;&lt;b&gt;NOT NULL&lt;/b&gt;&lt;/font&gt;&lt;/span&gt;" style="shape=partialRectangle;html=1;whiteSpace=wrap;connectable=0;strokeColor=#6c8ebf;overflow=hidden;fillColor=#dae8fc;top=0;left=0;bottom=0;right=0;pointerEvents=1;fontSize=16;strokeWidth=3;perimeterSpacing=2;shadow=1;" parent="36" vertex="1">
                    <mxGeometry x="182" width="86" height="33" as="geometry">
                        <mxRectangle width="86" height="33" as="alternateBounds"/>
                    </mxGeometry>
                </mxCell>
                <mxCell id="48" value="" style="shape=tableRow;horizontal=0;startSize=0;swimlaneHead=0;swimlaneBody=0;strokeColor=#6c8ebf;top=0;left=0;bottom=0;right=0;collapsible=0;dropTarget=0;fillColor=#dae8fc;points=[[0,0.5],[1,0.5]];portConstraint=eastwest;fontSize=16;strokeWidth=3;perimeterSpacing=2;shadow=1;" parent="27" vertex="1">
                    <mxGeometry y="134" width="268" height="88" as="geometry"/>
                </mxCell>
                <mxCell id="49" value="DATE" style="shape=partialRectangle;html=1;whiteSpace=wrap;connectable=0;strokeColor=#6c8ebf;overflow=hidden;fillColor=#dae8fc;top=0;left=0;bottom=0;right=0;pointerEvents=1;fontSize=16;strokeWidth=3;perimeterSpacing=2;shadow=1;" parent="48" vertex="1">
                    <mxGeometry width="79" height="88" as="geometry">
                        <mxRectangle width="79" height="88" as="alternateBounds"/>
                    </mxGeometry>
                </mxCell>
                <mxCell id="50" value="created_at" style="shape=partialRectangle;html=1;whiteSpace=wrap;connectable=0;strokeColor=#6c8ebf;overflow=hidden;fillColor=#dae8fc;top=0;left=0;bottom=0;right=0;pointerEvents=1;fontSize=16;strokeWidth=3;perimeterSpacing=2;shadow=1;" parent="48" vertex="1">
                    <mxGeometry x="79" width="103" height="88" as="geometry">
                        <mxRectangle width="103" height="88" as="alternateBounds"/>
                    </mxGeometry>
                </mxCell>
                <mxCell id="51" value="&lt;span style=&quot;color: rgb(0, 0, 0);&quot;&gt;&lt;font style=&quot;font-size: 12px;&quot;&gt;&lt;b&gt;NOT NULL&lt;/b&gt;&lt;/font&gt;&lt;/span&gt;&lt;div&gt;&lt;span style=&quot;color: rgb(0, 0, 0);&quot;&gt;&lt;font style=&quot;font-size: 12px;&quot;&gt;default, CURRENT DATE&lt;/font&gt;&lt;/span&gt;&lt;/div&gt;" style="shape=partialRectangle;html=1;whiteSpace=wrap;connectable=0;strokeColor=#6c8ebf;overflow=hidden;fillColor=#dae8fc;top=0;left=0;bottom=0;right=0;pointerEvents=1;fontSize=16;strokeWidth=3;perimeterSpacing=2;shadow=1;" parent="48" vertex="1">
                    <mxGeometry x="182" width="86" height="88" as="geometry">
                        <mxRectangle width="86" height="88" as="alternateBounds"/>
                    </mxGeometry>
                </mxCell>
                <mxCell id="52" value="PERMISSION" style="shape=table;startSize=30;container=1;collapsible=0;childLayout=tableLayout;strokeColor=#82b366;fontSize=16;fillColor=#d5e8d4;strokeWidth=2;perimeterSpacing=1;shadow=1;swimlaneFillColor=default;" parent="1" vertex="1">
                    <mxGeometry x="138" y="360" width="289" height="119" as="geometry"/>
                </mxCell>
                <mxCell id="53" value="" style="shape=tableRow;horizontal=0;startSize=0;swimlaneHead=0;swimlaneBody=0;strokeColor=#82b366;top=0;left=0;bottom=0;right=0;collapsible=0;dropTarget=0;fillColor=#d5e8d4;points=[[0,0.5],[1,0.5]];portConstraint=eastwest;fontSize=16;" parent="52" vertex="1">
                    <mxGeometry y="30" width="289" height="30" as="geometry"/>
                </mxCell>
                <mxCell id="54" value="INTEGER" style="shape=partialRectangle;html=1;whiteSpace=wrap;connectable=0;strokeColor=#82b366;overflow=hidden;fillColor=#d5e8d4;top=0;left=0;bottom=0;right=0;pointerEvents=1;fontSize=16;" parent="53" vertex="1">
                    <mxGeometry width="84" height="30" as="geometry">
                        <mxRectangle width="84" height="30" as="alternateBounds"/>
                    </mxGeometry>
                </mxCell>
                <mxCell id="55" value="id_permission" style="shape=partialRectangle;html=1;whiteSpace=wrap;connectable=0;strokeColor=#82b366;overflow=hidden;fillColor=#d5e8d4;top=0;left=0;bottom=0;right=0;pointerEvents=1;fontSize=16;" parent="53" vertex="1">
                    <mxGeometry x="84" width="116" height="30" as="geometry">
                        <mxRectangle width="116" height="30" as="alternateBounds"/>
                    </mxGeometry>
                </mxCell>
                <mxCell id="56" value="PK" style="shape=partialRectangle;html=1;whiteSpace=wrap;connectable=0;strokeColor=#82b366;overflow=hidden;fillColor=#d5e8d4;top=0;left=0;bottom=0;right=0;pointerEvents=1;fontSize=16;" parent="53" vertex="1">
                    <mxGeometry x="200" width="89" height="30" as="geometry">
                        <mxRectangle width="89" height="30" as="alternateBounds"/>
                    </mxGeometry>
                </mxCell>
                <mxCell id="61" value="" style="shape=tableRow;horizontal=0;startSize=0;swimlaneHead=0;swimlaneBody=0;strokeColor=#82b366;top=0;left=0;bottom=0;right=0;collapsible=0;dropTarget=0;fillColor=#d5e8d4;points=[[0,0.5],[1,0.5]];portConstraint=eastwest;fontSize=16;" parent="52" vertex="1">
                    <mxGeometry y="60" width="289" height="30" as="geometry"/>
                </mxCell>
                <mxCell id="62" value="TEXT" style="shape=partialRectangle;html=1;whiteSpace=wrap;connectable=0;strokeColor=#82b366;overflow=hidden;fillColor=#d5e8d4;top=0;left=0;bottom=0;right=0;pointerEvents=1;fontSize=16;" parent="61" vertex="1">
                    <mxGeometry width="84" height="30" as="geometry">
                        <mxRectangle width="84" height="30" as="alternateBounds"/>
                    </mxGeometry>
                </mxCell>
                <mxCell id="63" value="label" style="shape=partialRectangle;html=1;whiteSpace=wrap;connectable=0;strokeColor=#82b366;overflow=hidden;fillColor=#d5e8d4;top=0;left=0;bottom=0;right=0;pointerEvents=1;fontSize=16;" parent="61" vertex="1">
                    <mxGeometry x="84" width="116" height="30" as="geometry">
                        <mxRectangle width="116" height="30" as="alternateBounds"/>
                    </mxGeometry>
                </mxCell>
                <mxCell id="64" value="&lt;font style=&quot;font-size: 12px;&quot;&gt;&lt;b&gt;UK&lt;/b&gt;&lt;/font&gt;" style="shape=partialRectangle;html=1;whiteSpace=wrap;connectable=0;strokeColor=#82b366;overflow=hidden;fillColor=#d5e8d4;top=0;left=0;bottom=0;right=0;pointerEvents=1;fontSize=16;" parent="61" vertex="1">
                    <mxGeometry x="200" width="89" height="30" as="geometry">
                        <mxRectangle width="89" height="30" as="alternateBounds"/>
                    </mxGeometry>
                </mxCell>
                <mxCell id="65" value="" style="shape=tableRow;horizontal=0;startSize=0;swimlaneHead=0;swimlaneBody=0;strokeColor=#82b366;top=0;left=0;bottom=0;right=0;collapsible=0;dropTarget=0;fillColor=#d5e8d4;points=[[0,0.5],[1,0.5]];portConstraint=eastwest;fontSize=16;" parent="52" vertex="1">
                    <mxGeometry y="90" width="289" height="29" as="geometry"/>
                </mxCell>
                <mxCell id="66" value="TEXT" style="shape=partialRectangle;html=1;whiteSpace=wrap;connectable=0;strokeColor=#82b366;overflow=hidden;fillColor=#d5e8d4;top=0;left=0;bottom=0;right=0;pointerEvents=1;fontSize=16;" parent="65" vertex="1">
                    <mxGeometry width="84" height="29" as="geometry">
                        <mxRectangle width="84" height="29" as="alternateBounds"/>
                    </mxGeometry>
                </mxCell>
                <mxCell id="67" value="action" style="shape=partialRectangle;html=1;whiteSpace=wrap;connectable=0;strokeColor=#82b366;overflow=hidden;fillColor=#d5e8d4;top=0;left=0;bottom=0;right=0;pointerEvents=1;fontSize=16;" parent="65" vertex="1">
                    <mxGeometry x="84" width="116" height="29" as="geometry">
                        <mxRectangle width="116" height="29" as="alternateBounds"/>
                    </mxGeometry>
                </mxCell>
                <mxCell id="68" value="&lt;font style=&quot;font-size: 12px;&quot;&gt;&lt;b&gt;NULL&lt;/b&gt;&lt;/font&gt;" style="shape=partialRectangle;html=1;whiteSpace=wrap;connectable=0;strokeColor=#82b366;overflow=hidden;fillColor=#d5e8d4;top=0;left=0;bottom=0;right=0;pointerEvents=1;fontSize=16;" parent="65" vertex="1">
                    <mxGeometry x="200" width="89" height="29" as="geometry">
                        <mxRectangle width="89" height="29" as="alternateBounds"/>
                    </mxGeometry>
                </mxCell>
                <mxCell id="69" value="ROLE_PERMISSION" style="shape=table;startSize=30;container=1;collapsible=0;childLayout=tableLayout;strokeColor=#82b366;fontSize=16;fillColor=#d5e8d4;strokeWidth=2;perimeterSpacing=1;shadow=1;swimlaneFillColor=default;" parent="1" vertex="1">
                    <mxGeometry x="280" y="120" width="310" height="160" as="geometry"/>
                </mxCell>
                <mxCell id="211" value="" style="shape=tableRow;horizontal=0;startSize=0;swimlaneHead=0;swimlaneBody=0;strokeColor=inherit;top=0;left=0;bottom=0;right=0;collapsible=0;dropTarget=0;fillColor=none;points=[[0,0.5],[1,0.5]];portConstraint=eastwest;fontSize=16;" parent="69" vertex="1">
                    <mxGeometry y="30" width="310" height="43" as="geometry"/>
                </mxCell>
                <mxCell id="212" value="INTEGER" style="shape=partialRectangle;html=1;whiteSpace=wrap;connectable=0;strokeColor=inherit;overflow=hidden;fillColor=none;top=0;left=0;bottom=0;right=0;pointerEvents=1;fontSize=16;" parent="211" vertex="1">
                    <mxGeometry width="99" height="43" as="geometry">
                        <mxRectangle width="99" height="43" as="alternateBounds"/>
                    </mxGeometry>
                </mxCell>
                <mxCell id="213" value="id_permission_role" style="shape=partialRectangle;html=1;whiteSpace=wrap;connectable=0;strokeColor=inherit;overflow=hidden;fillColor=none;top=0;left=0;bottom=0;right=0;pointerEvents=1;fontSize=16;" parent="211" vertex="1">
                    <mxGeometry x="99" width="148" height="43" as="geometry">
                        <mxRectangle width="148" height="43" as="alternateBounds"/>
                    </mxGeometry>
                </mxCell>
                <mxCell id="214" value="PK" style="shape=partialRectangle;html=1;whiteSpace=wrap;connectable=0;strokeColor=inherit;overflow=hidden;fillColor=none;top=0;left=0;bottom=0;right=0;pointerEvents=1;fontSize=16;" parent="211" vertex="1">
                    <mxGeometry x="247" width="63" height="43" as="geometry">
                        <mxRectangle width="63" height="43" as="alternateBounds"/>
                    </mxGeometry>
                </mxCell>
                <mxCell id="70" value="" style="shape=tableRow;horizontal=0;startSize=0;swimlaneHead=0;swimlaneBody=0;strokeColor=inherit;top=0;left=0;bottom=0;right=0;collapsible=0;dropTarget=0;fillColor=none;points=[[0,0.5],[1,0.5]];portConstraint=eastwest;fontSize=16;" parent="69" vertex="1">
                    <mxGeometry y="73" width="310" height="44" as="geometry"/>
                </mxCell>
                <mxCell id="71" value="INTEGER" style="shape=partialRectangle;html=1;whiteSpace=wrap;connectable=0;strokeColor=inherit;overflow=hidden;fillColor=none;top=0;left=0;bottom=0;right=0;pointerEvents=1;fontSize=16;" parent="70" vertex="1">
                    <mxGeometry width="99" height="44" as="geometry">
                        <mxRectangle width="99" height="44" as="alternateBounds"/>
                    </mxGeometry>
                </mxCell>
                <mxCell id="72" value="id_role" style="shape=partialRectangle;html=1;whiteSpace=wrap;connectable=0;strokeColor=inherit;overflow=hidden;fillColor=none;top=0;left=0;bottom=0;right=0;pointerEvents=1;fontSize=16;" parent="70" vertex="1">
                    <mxGeometry x="99" width="148" height="44" as="geometry">
                        <mxRectangle width="148" height="44" as="alternateBounds"/>
                    </mxGeometry>
                </mxCell>
                <mxCell id="73" value="FK" style="shape=partialRectangle;html=1;whiteSpace=wrap;connectable=0;strokeColor=inherit;overflow=hidden;fillColor=none;top=0;left=0;bottom=0;right=0;pointerEvents=1;fontSize=16;" parent="70" vertex="1">
                    <mxGeometry x="247" width="63" height="44" as="geometry">
                        <mxRectangle width="63" height="44" as="alternateBounds"/>
                    </mxGeometry>
                </mxCell>
                <mxCell id="74" value="" style="shape=tableRow;horizontal=0;startSize=0;swimlaneHead=0;swimlaneBody=0;strokeColor=inherit;top=0;left=0;bottom=0;right=0;collapsible=0;dropTarget=0;fillColor=none;points=[[0,0.5],[1,0.5]];portConstraint=eastwest;fontSize=16;" parent="69" vertex="1">
                    <mxGeometry y="117" width="310" height="43" as="geometry"/>
                </mxCell>
                <mxCell id="75" value="INTEGER" style="shape=partialRectangle;html=1;whiteSpace=wrap;connectable=0;strokeColor=inherit;overflow=hidden;fillColor=none;top=0;left=0;bottom=0;right=0;pointerEvents=1;fontSize=16;" parent="74" vertex="1">
                    <mxGeometry width="99" height="43" as="geometry">
                        <mxRectangle width="99" height="43" as="alternateBounds"/>
                    </mxGeometry>
                </mxCell>
                <mxCell id="76" value="id_permission" style="shape=partialRectangle;html=1;whiteSpace=wrap;connectable=0;strokeColor=inherit;overflow=hidden;fillColor=none;top=0;left=0;bottom=0;right=0;pointerEvents=1;fontSize=16;" parent="74" vertex="1">
                    <mxGeometry x="99" width="148" height="43" as="geometry">
                        <mxRectangle width="148" height="43" as="alternateBounds"/>
                    </mxGeometry>
                </mxCell>
                <mxCell id="77" value="FK" style="shape=partialRectangle;html=1;whiteSpace=wrap;connectable=0;strokeColor=inherit;overflow=hidden;fillColor=none;top=0;left=0;bottom=0;right=0;pointerEvents=1;fontSize=16;" parent="74" vertex="1">
                    <mxGeometry x="247" width="63" height="43" as="geometry">
                        <mxRectangle width="63" height="43" as="alternateBounds"/>
                    </mxGeometry>
                </mxCell>
                <mxCell id="90" value="BOOK" style="shape=table;startSize=30;container=1;collapsible=0;childLayout=tableLayout;strokeColor=#9673a6;fontSize=16;fillColor=#e1d5e7;strokeWidth=2;perimeterSpacing=1;shadow=1;swimlaneFillColor=default;" parent="1" vertex="1">
                    <mxGeometry x="1560" y="1130" width="321" height="313.5" as="geometry"/>
                </mxCell>
                <mxCell id="91" value="" style="shape=tableRow;horizontal=0;startSize=0;swimlaneHead=0;swimlaneBody=0;strokeColor=#9673a6;top=0;left=0;bottom=0;right=0;collapsible=0;dropTarget=0;fillColor=#e1d5e7;points=[[0,0.5],[1,0.5]];portConstraint=eastwest;fontSize=16;" parent="90" vertex="1">
                    <mxGeometry y="30" width="321" height="37" as="geometry"/>
                </mxCell>
                <mxCell id="92" value="INTEGER" style="shape=partialRectangle;html=1;whiteSpace=wrap;connectable=0;strokeColor=#9673a6;overflow=hidden;fillColor=#e1d5e7;top=0;left=0;bottom=0;right=0;pointerEvents=1;fontSize=16;" parent="91" vertex="1">
                    <mxGeometry width="94" height="37" as="geometry">
                        <mxRectangle width="94" height="37" as="alternateBounds"/>
                    </mxGeometry>
                </mxCell>
                <mxCell id="93" value="id_book" style="shape=partialRectangle;html=1;whiteSpace=wrap;connectable=0;strokeColor=#9673a6;overflow=hidden;fillColor=#e1d5e7;top=0;left=0;bottom=0;right=0;pointerEvents=1;fontSize=16;" parent="91" vertex="1">
                    <mxGeometry x="94" width="116" height="37" as="geometry">
                        <mxRectangle width="116" height="37" as="alternateBounds"/>
                    </mxGeometry>
                </mxCell>
                <mxCell id="94" value="PK" style="shape=partialRectangle;html=1;whiteSpace=wrap;connectable=0;strokeColor=#9673a6;overflow=hidden;fillColor=#e1d5e7;top=0;left=0;bottom=0;right=0;pointerEvents=1;fontSize=16;" parent="91" vertex="1">
                    <mxGeometry x="210" width="111" height="37" as="geometry">
                        <mxRectangle width="111" height="37" as="alternateBounds"/>
                    </mxGeometry>
                </mxCell>
                <mxCell id="95" value="" style="shape=tableRow;horizontal=0;startSize=0;swimlaneHead=0;swimlaneBody=0;strokeColor=#9673a6;top=0;left=0;bottom=0;right=0;collapsible=0;dropTarget=0;fillColor=#e1d5e7;points=[[0,0.5],[1,0.5]];portConstraint=eastwest;fontSize=16;" parent="90" vertex="1">
                    <mxGeometry y="67" width="321" height="33" as="geometry"/>
                </mxCell>
                <mxCell id="96" value="TEXT" style="shape=partialRectangle;html=1;whiteSpace=wrap;connectable=0;strokeColor=#9673a6;overflow=hidden;fillColor=#e1d5e7;top=0;left=0;bottom=0;right=0;pointerEvents=1;fontSize=16;" parent="95" vertex="1">
                    <mxGeometry width="94" height="33" as="geometry">
                        <mxRectangle width="94" height="33" as="alternateBounds"/>
                    </mxGeometry>
                </mxCell>
                <mxCell id="97" value="isbn" style="shape=partialRectangle;html=1;whiteSpace=wrap;connectable=0;strokeColor=#9673a6;overflow=hidden;fillColor=#e1d5e7;top=0;left=0;bottom=0;right=0;pointerEvents=1;fontSize=16;" parent="95" vertex="1">
                    <mxGeometry x="94" width="116" height="33" as="geometry">
                        <mxRectangle width="116" height="33" as="alternateBounds"/>
                    </mxGeometry>
                </mxCell>
                <mxCell id="98" value="&lt;font style=&quot;font-size: 12px;&quot;&gt;&lt;b&gt;UK&lt;/b&gt;&lt;/font&gt;" style="shape=partialRectangle;html=1;whiteSpace=wrap;connectable=0;strokeColor=#9673a6;overflow=hidden;fillColor=#e1d5e7;top=0;left=0;bottom=0;right=0;pointerEvents=1;fontSize=16;" parent="95" vertex="1">
                    <mxGeometry x="210" width="111" height="33" as="geometry">
                        <mxRectangle width="111" height="33" as="alternateBounds"/>
                    </mxGeometry>
                </mxCell>
                <mxCell id="119" value="" style="shape=tableRow;horizontal=0;startSize=0;swimlaneHead=0;swimlaneBody=0;strokeColor=#9673a6;top=0;left=0;bottom=0;right=0;collapsible=0;dropTarget=0;fillColor=#e1d5e7;points=[[0,0.5],[1,0.5]];portConstraint=eastwest;fontSize=16;" parent="90" vertex="1">
                    <mxGeometry y="100" width="321" height="37" as="geometry"/>
                </mxCell>
                <mxCell id="120" value="TEXT" style="shape=partialRectangle;html=1;whiteSpace=wrap;connectable=0;strokeColor=#9673a6;overflow=hidden;fillColor=#e1d5e7;top=0;left=0;bottom=0;right=0;pointerEvents=1;fontSize=16;" parent="119" vertex="1">
                    <mxGeometry width="94" height="37" as="geometry">
                        <mxRectangle width="94" height="37" as="alternateBounds"/>
                    </mxGeometry>
                </mxCell>
                <mxCell id="121" value="title" style="shape=partialRectangle;html=1;whiteSpace=wrap;connectable=0;strokeColor=#9673a6;overflow=hidden;fillColor=#e1d5e7;top=0;left=0;bottom=0;right=0;pointerEvents=1;fontSize=16;" parent="119" vertex="1">
                    <mxGeometry x="94" width="116" height="37" as="geometry">
                        <mxRectangle width="116" height="37" as="alternateBounds"/>
                    </mxGeometry>
                </mxCell>
                <mxCell id="122" value="&lt;font style=&quot;font-size: 12px;&quot;&gt;&lt;b&gt;NOT NULL&lt;/b&gt;&lt;/font&gt;" style="shape=partialRectangle;html=1;whiteSpace=wrap;connectable=0;strokeColor=#9673a6;overflow=hidden;fillColor=#e1d5e7;top=0;left=0;bottom=0;right=0;pointerEvents=1;fontSize=16;" parent="119" vertex="1">
                    <mxGeometry x="210" width="111" height="37" as="geometry">
                        <mxRectangle width="111" height="37" as="alternateBounds"/>
                    </mxGeometry>
                </mxCell>
                <mxCell id="456" value="" style="shape=tableRow;horizontal=0;startSize=0;swimlaneHead=0;swimlaneBody=0;strokeColor=#9673a6;top=0;left=0;bottom=0;right=0;collapsible=0;dropTarget=0;fillColor=#e1d5e7;points=[[0,0.5],[1,0.5]];portConstraint=eastwest;fontSize=16;" parent="90" vertex="1">
                    <mxGeometry y="137" width="321" height="45" as="geometry"/>
                </mxCell>
                <mxCell id="457" value="BOOL" style="shape=partialRectangle;html=1;whiteSpace=wrap;connectable=0;strokeColor=#9673a6;overflow=hidden;fillColor=#e1d5e7;top=0;left=0;bottom=0;right=0;pointerEvents=1;fontSize=16;" parent="456" vertex="1">
                    <mxGeometry width="94" height="45" as="geometry">
                        <mxRectangle width="94" height="45" as="alternateBounds"/>
                    </mxGeometry>
                </mxCell>
                <mxCell id="458" value="image" style="shape=partialRectangle;html=1;whiteSpace=wrap;connectable=0;strokeColor=#9673a6;overflow=hidden;fillColor=#e1d5e7;top=0;left=0;bottom=0;right=0;pointerEvents=1;fontSize=16;" parent="456" vertex="1">
                    <mxGeometry x="94" width="116" height="45" as="geometry">
                        <mxRectangle width="116" height="45" as="alternateBounds"/>
                    </mxGeometry>
                </mxCell>
                <mxCell id="459" value="&lt;font style=&quot;font-size: 12px;&quot;&gt;&lt;b&gt;NOT NULL &lt;/b&gt;default FALSE&lt;/font&gt;" style="shape=partialRectangle;html=1;whiteSpace=wrap;connectable=0;strokeColor=#9673a6;overflow=hidden;fillColor=#e1d5e7;top=0;left=0;bottom=0;right=0;pointerEvents=1;fontSize=16;" parent="456" vertex="1">
                    <mxGeometry x="210" width="111" height="45" as="geometry">
                        <mxRectangle width="111" height="45" as="alternateBounds"/>
                    </mxGeometry>
                </mxCell>
                <mxCell id="107" value="" style="shape=tableRow;horizontal=0;startSize=0;swimlaneHead=0;swimlaneBody=0;strokeColor=#9673a6;top=0;left=0;bottom=0;right=0;collapsible=0;dropTarget=0;fillColor=#e1d5e7;points=[[0,0.5],[1,0.5]];portConstraint=eastwest;fontSize=16;" parent="90" vertex="1">
                    <mxGeometry y="182" width="321" height="43" as="geometry"/>
                </mxCell>
                <mxCell id="108" value="TEXT" style="shape=partialRectangle;html=1;whiteSpace=wrap;connectable=0;strokeColor=#9673a6;overflow=hidden;fillColor=#e1d5e7;top=0;left=0;bottom=0;right=0;pointerEvents=1;fontSize=16;" parent="107" vertex="1">
                    <mxGeometry width="94" height="43" as="geometry">
                        <mxRectangle width="94" height="43" as="alternateBounds"/>
                    </mxGeometry>
                </mxCell>
                <mxCell id="109" value="summary" style="shape=partialRectangle;html=1;whiteSpace=wrap;connectable=0;strokeColor=#9673a6;overflow=hidden;fillColor=#e1d5e7;top=0;left=0;bottom=0;right=0;pointerEvents=1;fontSize=16;" parent="107" vertex="1">
                    <mxGeometry x="94" width="116" height="43" as="geometry">
                        <mxRectangle width="116" height="43" as="alternateBounds"/>
                    </mxGeometry>
                </mxCell>
                <mxCell id="110" value="&lt;font style=&quot;font-size: 12px;&quot;&gt;&lt;b&gt;NULL&lt;/b&gt;&lt;/font&gt;" style="shape=partialRectangle;html=1;whiteSpace=wrap;connectable=0;strokeColor=#9673a6;overflow=hidden;fillColor=#e1d5e7;top=0;left=0;bottom=0;right=0;pointerEvents=1;fontSize=16;" parent="107" vertex="1">
                    <mxGeometry x="210" width="111" height="43" as="geometry">
                        <mxRectangle width="111" height="43" as="alternateBounds"/>
                    </mxGeometry>
                </mxCell>
                <mxCell id="111" value="" style="shape=tableRow;horizontal=0;startSize=0;swimlaneHead=0;swimlaneBody=0;strokeColor=#9673a6;top=0;left=0;bottom=0;right=0;collapsible=0;dropTarget=0;fillColor=#e1d5e7;points=[[0,0.5],[1,0.5]];portConstraint=eastwest;fontSize=16;" parent="90" vertex="1">
                    <mxGeometry y="225" width="321" height="39" as="geometry"/>
                </mxCell>
                <mxCell id="112" value="TEXT" style="shape=partialRectangle;html=1;whiteSpace=wrap;connectable=0;strokeColor=#9673a6;overflow=hidden;fillColor=#e1d5e7;top=0;left=0;bottom=0;right=0;pointerEvents=1;fontSize=16;" parent="111" vertex="1">
                    <mxGeometry width="94" height="39" as="geometry">
                        <mxRectangle width="94" height="39" as="alternateBounds"/>
                    </mxGeometry>
                </mxCell>
                <mxCell id="113" value="nb_pages" style="shape=partialRectangle;html=1;whiteSpace=wrap;connectable=0;strokeColor=#9673a6;overflow=hidden;fillColor=#e1d5e7;top=0;left=0;bottom=0;right=0;pointerEvents=1;fontSize=16;" parent="111" vertex="1">
                    <mxGeometry x="94" width="116" height="39" as="geometry">
                        <mxRectangle width="116" height="39" as="alternateBounds"/>
                    </mxGeometry>
                </mxCell>
                <mxCell id="114" value="&lt;font style=&quot;font-size: 12px;&quot;&gt;&lt;b&gt;NULL&lt;/b&gt;&lt;/font&gt;" style="shape=partialRectangle;html=1;whiteSpace=wrap;connectable=0;strokeColor=#9673a6;overflow=hidden;fillColor=#e1d5e7;top=0;left=0;bottom=0;right=0;pointerEvents=1;fontSize=16;" parent="111" vertex="1">
                    <mxGeometry x="210" width="111" height="39" as="geometry">
                        <mxRectangle width="111" height="39" as="alternateBounds"/>
                    </mxGeometry>
                </mxCell>
                <mxCell id="115" value="" style="shape=tableRow;horizontal=0;startSize=0;swimlaneHead=0;swimlaneBody=0;strokeColor=#9673a6;top=0;left=0;bottom=0;right=0;collapsible=0;dropTarget=0;fillColor=#e1d5e7;points=[[0,0.5],[1,0.5]];portConstraint=eastwest;fontSize=16;" parent="90" vertex="1">
                    <mxGeometry y="264" width="321" height="50" as="geometry"/>
                </mxCell>
                <mxCell id="116" value="DATE" style="shape=partialRectangle;html=1;whiteSpace=wrap;connectable=0;strokeColor=#9673a6;overflow=hidden;fillColor=#e1d5e7;top=0;left=0;bottom=0;right=0;pointerEvents=1;fontSize=16;" parent="115" vertex="1">
                    <mxGeometry width="94" height="50" as="geometry">
                        <mxRectangle width="94" height="50" as="alternateBounds"/>
                    </mxGeometry>
                </mxCell>
                <mxCell id="117" value="published_at" style="shape=partialRectangle;html=1;whiteSpace=wrap;connectable=0;strokeColor=#9673a6;overflow=hidden;fillColor=#e1d5e7;top=0;left=0;bottom=0;right=0;pointerEvents=1;fontSize=16;" parent="115" vertex="1">
                    <mxGeometry x="94" width="116" height="50" as="geometry">
                        <mxRectangle width="116" height="50" as="alternateBounds"/>
                    </mxGeometry>
                </mxCell>
                <mxCell id="118" value="&lt;font style=&quot;font-size: 12px;&quot;&gt;&lt;b&gt;NULL&lt;/b&gt;&lt;/font&gt;" style="shape=partialRectangle;html=1;whiteSpace=wrap;connectable=0;strokeColor=#9673a6;overflow=hidden;fillColor=#e1d5e7;top=0;left=0;bottom=0;right=0;pointerEvents=1;fontSize=16;" parent="115" vertex="1">
                    <mxGeometry x="210" width="111" height="50" as="geometry">
                        <mxRectangle width="111" height="50" as="alternateBounds"/>
                    </mxGeometry>
                </mxCell>
                <mxCell id="123" value="LIBRARY" style="shape=table;startSize=30;container=1;collapsible=0;childLayout=tableLayout;strokeColor=#d6b656;fontSize=16;fillColor=#fff2cc;strokeWidth=2;perimeterSpacing=1;shadow=1;swimlaneFillColor=default;" parent="1" vertex="1">
                    <mxGeometry x="1368" y="304" width="291" height="353.86875" as="geometry"/>
                </mxCell>
                <mxCell id="124" value="" style="shape=tableRow;horizontal=0;startSize=0;swimlaneHead=0;swimlaneBody=0;strokeColor=#d6b656;top=0;left=0;bottom=0;right=0;collapsible=0;dropTarget=0;fillColor=#fff2cc;points=[[0,0.5],[1,0.5]];portConstraint=eastwest;fontSize=16;" parent="123" vertex="1">
                    <mxGeometry y="30" width="291" height="41" as="geometry"/>
                </mxCell>
                <mxCell id="125" value="INTEGER" style="shape=partialRectangle;html=1;whiteSpace=wrap;connectable=0;strokeColor=#d6b656;overflow=hidden;fillColor=#fff2cc;top=0;left=0;bottom=0;right=0;pointerEvents=1;fontSize=16;" parent="124" vertex="1">
                    <mxGeometry width="88" height="41" as="geometry">
                        <mxRectangle width="88" height="41" as="alternateBounds"/>
                    </mxGeometry>
                </mxCell>
                <mxCell id="126" value="id_library" style="shape=partialRectangle;html=1;whiteSpace=wrap;connectable=0;strokeColor=#d6b656;overflow=hidden;fillColor=#fff2cc;top=0;left=0;bottom=0;right=0;pointerEvents=1;fontSize=16;" parent="124" vertex="1">
                    <mxGeometry x="88" width="103" height="41" as="geometry">
                        <mxRectangle width="103" height="41" as="alternateBounds"/>
                    </mxGeometry>
                </mxCell>
                <mxCell id="127" value="PK" style="shape=partialRectangle;html=1;whiteSpace=wrap;connectable=0;strokeColor=#d6b656;overflow=hidden;fillColor=#fff2cc;top=0;left=0;bottom=0;right=0;pointerEvents=1;fontSize=16;" parent="124" vertex="1">
                    <mxGeometry x="191" width="100" height="41" as="geometry">
                        <mxRectangle width="100" height="41" as="alternateBounds"/>
                    </mxGeometry>
                </mxCell>
                <mxCell id="128" value="" style="shape=tableRow;horizontal=0;startSize=0;swimlaneHead=0;swimlaneBody=0;strokeColor=#d6b656;top=0;left=0;bottom=0;right=0;collapsible=0;dropTarget=0;fillColor=#fff2cc;points=[[0,0.5],[1,0.5]];portConstraint=eastwest;fontSize=16;" parent="123" vertex="1">
                    <mxGeometry y="71" width="291" height="39" as="geometry"/>
                </mxCell>
                <mxCell id="129" value="INTEGER" style="shape=partialRectangle;html=1;whiteSpace=wrap;connectable=0;strokeColor=#d6b656;overflow=hidden;fillColor=#fff2cc;top=0;left=0;bottom=0;right=0;pointerEvents=1;fontSize=16;" parent="128" vertex="1">
                    <mxGeometry width="88" height="39" as="geometry">
                        <mxRectangle width="88" height="39" as="alternateBounds"/>
                    </mxGeometry>
                </mxCell>
                <mxCell id="130" value="id_user" style="shape=partialRectangle;html=1;whiteSpace=wrap;connectable=0;strokeColor=#d6b656;overflow=hidden;fillColor=#fff2cc;top=0;left=0;bottom=0;right=0;pointerEvents=1;fontSize=16;" parent="128" vertex="1">
                    <mxGeometry x="88" width="103" height="39" as="geometry">
                        <mxRectangle width="103" height="39" as="alternateBounds"/>
                    </mxGeometry>
                </mxCell>
                <mxCell id="131" value="FK" style="shape=partialRectangle;html=1;whiteSpace=wrap;connectable=0;strokeColor=#d6b656;overflow=hidden;fillColor=#fff2cc;top=0;left=0;bottom=0;right=0;pointerEvents=1;fontSize=16;" parent="128" vertex="1">
                    <mxGeometry x="191" width="100" height="39" as="geometry">
                        <mxRectangle width="100" height="39" as="alternateBounds"/>
                    </mxGeometry>
                </mxCell>
                <mxCell id="524" value="" style="shape=tableRow;horizontal=0;startSize=0;swimlaneHead=0;swimlaneBody=0;strokeColor=#d6b656;top=0;left=0;bottom=0;right=0;collapsible=0;dropTarget=0;fillColor=#fff2cc;points=[[0,0.5],[1,0.5]];portConstraint=eastwest;fontSize=16;" parent="123" vertex="1">
                    <mxGeometry y="110" width="291" height="31" as="geometry"/>
                </mxCell>
                <mxCell id="525" value="TEXT" style="shape=partialRectangle;html=1;whiteSpace=wrap;connectable=0;strokeColor=#d6b656;overflow=hidden;fillColor=#fff2cc;top=0;left=0;bottom=0;right=0;pointerEvents=1;fontSize=16;" parent="524" vertex="1">
                    <mxGeometry width="88" height="31" as="geometry">
                        <mxRectangle width="88" height="31" as="alternateBounds"/>
                    </mxGeometry>
                </mxCell>
                <mxCell id="526" value="name" style="shape=partialRectangle;html=1;whiteSpace=wrap;connectable=0;strokeColor=#d6b656;overflow=hidden;fillColor=#fff2cc;top=0;left=0;bottom=0;right=0;pointerEvents=1;fontSize=16;" parent="524" vertex="1">
                    <mxGeometry x="88" width="103" height="31" as="geometry">
                        <mxRectangle width="103" height="31" as="alternateBounds"/>
                    </mxGeometry>
                </mxCell>
                <mxCell id="527" value="&lt;font style=&quot;font-size: 12px;&quot;&gt;&lt;b&gt;UK&lt;/b&gt;&lt;/font&gt;" style="shape=partialRectangle;html=1;whiteSpace=wrap;connectable=0;strokeColor=#d6b656;overflow=hidden;fillColor=#fff2cc;top=0;left=0;bottom=0;right=0;pointerEvents=1;fontSize=16;" parent="524" vertex="1">
                    <mxGeometry x="191" width="100" height="31" as="geometry">
                        <mxRectangle width="100" height="31" as="alternateBounds"/>
                    </mxGeometry>
                </mxCell>
                <mxCell id="140" value="" style="shape=tableRow;horizontal=0;startSize=0;swimlaneHead=0;swimlaneBody=0;strokeColor=#d6b656;top=0;left=0;bottom=0;right=0;collapsible=0;dropTarget=0;fillColor=#fff2cc;points=[[0,0.5],[1,0.5]];portConstraint=eastwest;fontSize=16;" parent="123" vertex="1">
                    <mxGeometry y="141" width="291" height="71" as="geometry"/>
                </mxCell>
                <mxCell id="141" value="DATE" style="shape=partialRectangle;html=1;whiteSpace=wrap;connectable=0;strokeColor=#d6b656;overflow=hidden;fillColor=#fff2cc;top=0;left=0;bottom=0;right=0;pointerEvents=1;fontSize=16;" parent="140" vertex="1">
                    <mxGeometry width="88" height="71" as="geometry">
                        <mxRectangle width="88" height="71" as="alternateBounds"/>
                    </mxGeometry>
                </mxCell>
                <mxCell id="142" value="&lt;span style=&quot;color: rgb(0, 0, 0);&quot;&gt;created_at&lt;/span&gt;" style="shape=partialRectangle;html=1;whiteSpace=wrap;connectable=0;strokeColor=#d6b656;overflow=hidden;fillColor=#fff2cc;top=0;left=0;bottom=0;right=0;pointerEvents=1;fontSize=16;" parent="140" vertex="1">
                    <mxGeometry x="88" width="103" height="71" as="geometry">
                        <mxRectangle width="103" height="71" as="alternateBounds"/>
                    </mxGeometry>
                </mxCell>
                <mxCell id="143" value="&lt;span style=&quot;color: rgb(0, 0, 0);&quot;&gt;&lt;font style=&quot;font-size: 12px;&quot;&gt;&lt;b&gt;NOT NULL&lt;/b&gt;&lt;/font&gt;&lt;/span&gt;&lt;div&gt;&lt;span style=&quot;color: rgb(0, 0, 0);&quot;&gt;&lt;font style=&quot;font-size: 12px;&quot;&gt;default, CURRENT DATE&lt;/font&gt;&lt;/span&gt;&lt;/div&gt;" style="shape=partialRectangle;html=1;whiteSpace=wrap;connectable=0;strokeColor=#d6b656;overflow=hidden;fillColor=#fff2cc;top=0;left=0;bottom=0;right=0;pointerEvents=1;fontSize=16;" parent="140" vertex="1">
                    <mxGeometry x="191" width="100" height="71" as="geometry">
                        <mxRectangle width="100" height="71" as="alternateBounds"/>
                    </mxGeometry>
                </mxCell>
                <mxCell id="144" value="" style="shape=tableRow;horizontal=0;startSize=0;swimlaneHead=0;swimlaneBody=0;strokeColor=#d6b656;top=0;left=0;bottom=0;right=0;collapsible=0;dropTarget=0;fillColor=#fff2cc;points=[[0,0.5],[1,0.5]];portConstraint=eastwest;fontSize=16;" parent="123" vertex="1">
                    <mxGeometry y="212" width="291" height="69" as="geometry"/>
                </mxCell>
                <mxCell id="145" value="DATE" style="shape=partialRectangle;html=1;whiteSpace=wrap;connectable=0;strokeColor=#d6b656;overflow=hidden;fillColor=#fff2cc;top=0;left=0;bottom=0;right=0;pointerEvents=1;fontSize=16;" parent="144" vertex="1">
                    <mxGeometry width="88" height="69" as="geometry">
                        <mxRectangle width="88" height="69" as="alternateBounds"/>
                    </mxGeometry>
                </mxCell>
                <mxCell id="146" value="updated_at" style="shape=partialRectangle;html=1;whiteSpace=wrap;connectable=0;strokeColor=#d6b656;overflow=hidden;fillColor=#fff2cc;top=0;left=0;bottom=0;right=0;pointerEvents=1;fontSize=16;" parent="144" vertex="1">
                    <mxGeometry x="88" width="103" height="69" as="geometry">
                        <mxRectangle width="103" height="69" as="alternateBounds"/>
                    </mxGeometry>
                </mxCell>
                <mxCell id="147" value="&lt;span style=&quot;color: rgb(0, 0, 0);&quot;&gt;&lt;font style=&quot;font-size: 12px;&quot;&gt;&lt;b&gt;NOT NULL&lt;/b&gt;&lt;/font&gt;&lt;/span&gt;&lt;div&gt;&lt;span style=&quot;color: rgb(0, 0, 0);&quot;&gt;&lt;font style=&quot;font-size: 12px;&quot;&gt;default, CURRENT DATE&lt;/font&gt;&lt;/span&gt;&lt;/div&gt;" style="shape=partialRectangle;html=1;whiteSpace=wrap;connectable=0;strokeColor=#d6b656;overflow=hidden;fillColor=#fff2cc;top=0;left=0;bottom=0;right=0;pointerEvents=1;fontSize=16;" parent="144" vertex="1">
                    <mxGeometry x="191" width="100" height="69" as="geometry">
                        <mxRectangle width="100" height="69" as="alternateBounds"/>
                    </mxGeometry>
                </mxCell>
                <mxCell id="470" value="" style="shape=tableRow;horizontal=0;startSize=0;swimlaneHead=0;swimlaneBody=0;strokeColor=#d6b656;top=0;left=0;bottom=0;right=0;collapsible=0;dropTarget=0;fillColor=#fff2cc;points=[[0,0.5],[1,0.5]];portConstraint=eastwest;fontSize=16;" parent="123" vertex="1">
                    <mxGeometry y="281" width="291" height="73" as="geometry"/>
                </mxCell>
                <mxCell id="471" value="DATE" style="shape=partialRectangle;html=1;whiteSpace=wrap;connectable=0;strokeColor=#d6b656;overflow=hidden;fillColor=#fff2cc;top=0;left=0;bottom=0;right=0;pointerEvents=1;fontSize=16;" parent="470" vertex="1">
                    <mxGeometry width="88" height="73" as="geometry">
                        <mxRectangle width="88" height="73" as="alternateBounds"/>
                    </mxGeometry>
                </mxCell>
                <mxCell id="472" value="deleted_at" style="shape=partialRectangle;html=1;whiteSpace=wrap;connectable=0;strokeColor=#d6b656;overflow=hidden;fillColor=#fff2cc;top=0;left=0;bottom=0;right=0;pointerEvents=1;fontSize=16;" parent="470" vertex="1">
                    <mxGeometry x="88" width="103" height="73" as="geometry">
                        <mxRectangle width="103" height="73" as="alternateBounds"/>
                    </mxGeometry>
                </mxCell>
                <mxCell id="473" value="&lt;span style=&quot;color: rgb(0, 0, 0);&quot;&gt;&lt;font style=&quot;font-size: 12px;&quot;&gt;&lt;b&gt;NOT NULL&lt;/b&gt;&lt;/font&gt;&lt;/span&gt;&lt;div&gt;&lt;span style=&quot;color: rgb(0, 0, 0);&quot;&gt;&lt;font style=&quot;font-size: 12px;&quot;&gt;default, CURRENT DATE&lt;/font&gt;&lt;/span&gt;&lt;/div&gt;" style="shape=partialRectangle;html=1;whiteSpace=wrap;connectable=0;strokeColor=#d6b656;overflow=hidden;fillColor=#fff2cc;top=0;left=0;bottom=0;right=0;pointerEvents=1;fontSize=16;" parent="470" vertex="1">
                    <mxGeometry x="191" width="100" height="73" as="geometry">
                        <mxRectangle width="100" height="73" as="alternateBounds"/>
                    </mxGeometry>
                </mxCell>
                <mxCell id="330" value="" style="endArrow=classic;html=1;fillColor=#fad9d5;strokeColor=#ae4132;strokeWidth=3;shadow=1;exitX=-0.001;exitY=0.402;exitDx=0;exitDy=0;exitPerimeter=0;" parent="123" source="128" edge="1">
                    <mxGeometry width="50" height="50" relative="1" as="geometry">
                        <mxPoint x="-150" y="730" as="sourcePoint"/>
                        <mxPoint x="-125" y="31" as="targetPoint"/>
                        <Array as="points">
                            <mxPoint x="-30" y="86"/>
                            <mxPoint x="-30" y="31"/>
                        </Array>
                    </mxGeometry>
                </mxCell>
                <mxCell id="156" value="READING_LIST" style="shape=table;startSize=30;container=1;collapsible=0;childLayout=tableLayout;strokeColor=#d79b00;fontSize=16;fillColor=#ffe6cc;strokeWidth=2;perimeterSpacing=1;shadow=1;swimlaneFillColor=default;" parent="1" vertex="1">
                    <mxGeometry x="1760" y="304" width="328" height="370.6313300492626" as="geometry"/>
                </mxCell>
                <mxCell id="157" value="" style="shape=tableRow;horizontal=0;startSize=0;swimlaneHead=0;swimlaneBody=0;strokeColor=#d79b00;top=0;left=0;bottom=0;right=0;collapsible=0;dropTarget=0;fillColor=#ffe6cc;points=[[0,0.5],[1,0.5]];portConstraint=eastwest;fontSize=16;" parent="156" vertex="1">
                    <mxGeometry y="30" width="328" height="38" as="geometry"/>
                </mxCell>
                <mxCell id="158" value="INTEGER" style="shape=partialRectangle;html=1;whiteSpace=wrap;connectable=0;strokeColor=#d79b00;overflow=hidden;fillColor=#ffe6cc;top=0;left=0;bottom=0;right=0;pointerEvents=1;fontSize=16;" parent="157" vertex="1">
                    <mxGeometry width="95" height="38" as="geometry">
                        <mxRectangle width="95" height="38" as="alternateBounds"/>
                    </mxGeometry>
                </mxCell>
                <mxCell id="159" value="id_reading_list" style="shape=partialRectangle;html=1;whiteSpace=wrap;connectable=0;strokeColor=#d79b00;overflow=hidden;fillColor=#ffe6cc;top=0;left=0;bottom=0;right=0;pointerEvents=1;fontSize=16;" parent="157" vertex="1">
                    <mxGeometry x="95" width="124" height="38" as="geometry">
                        <mxRectangle width="124" height="38" as="alternateBounds"/>
                    </mxGeometry>
                </mxCell>
                <mxCell id="160" value="PK" style="shape=partialRectangle;html=1;whiteSpace=wrap;connectable=0;strokeColor=#d79b00;overflow=hidden;fillColor=#ffe6cc;top=0;left=0;bottom=0;right=0;pointerEvents=1;fontSize=16;" parent="157" vertex="1">
                    <mxGeometry x="219" width="109" height="38" as="geometry">
                        <mxRectangle width="109" height="38" as="alternateBounds"/>
                    </mxGeometry>
                </mxCell>
                <mxCell id="161" value="" style="shape=tableRow;horizontal=0;startSize=0;swimlaneHead=0;swimlaneBody=0;strokeColor=#d79b00;top=0;left=0;bottom=0;right=0;collapsible=0;dropTarget=0;fillColor=#ffe6cc;points=[[0,0.5],[1,0.5]];portConstraint=eastwest;fontSize=16;" parent="156" vertex="1">
                    <mxGeometry y="68" width="328" height="30" as="geometry"/>
                </mxCell>
                <mxCell id="162" value="INTEGER" style="shape=partialRectangle;html=1;whiteSpace=wrap;connectable=0;strokeColor=#d79b00;overflow=hidden;fillColor=#ffe6cc;top=0;left=0;bottom=0;right=0;pointerEvents=1;fontSize=16;" parent="161" vertex="1">
                    <mxGeometry width="95" height="30" as="geometry">
                        <mxRectangle width="95" height="30" as="alternateBounds"/>
                    </mxGeometry>
                </mxCell>
                <mxCell id="163" value="id_&lt;span style=&quot;color: rgb(0, 0, 0);&quot;&gt;library&lt;/span&gt;" style="shape=partialRectangle;html=1;whiteSpace=wrap;connectable=0;strokeColor=#d79b00;overflow=hidden;fillColor=#ffe6cc;top=0;left=0;bottom=0;right=0;pointerEvents=1;fontSize=16;" parent="161" vertex="1">
                    <mxGeometry x="95" width="124" height="30" as="geometry">
                        <mxRectangle width="124" height="30" as="alternateBounds"/>
                    </mxGeometry>
                </mxCell>
                <mxCell id="164" value="FK" style="shape=partialRectangle;html=1;whiteSpace=wrap;connectable=0;strokeColor=#d79b00;overflow=hidden;fillColor=#ffe6cc;top=0;left=0;bottom=0;right=0;pointerEvents=1;fontSize=16;" parent="161" vertex="1">
                    <mxGeometry x="219" width="109" height="30" as="geometry">
                        <mxRectangle width="109" height="30" as="alternateBounds"/>
                    </mxGeometry>
                </mxCell>
                <mxCell id="534" value="" style="shape=tableRow;horizontal=0;startSize=0;swimlaneHead=0;swimlaneBody=0;strokeColor=#d79b00;top=0;left=0;bottom=0;right=0;collapsible=0;dropTarget=0;fillColor=#ffe6cc;points=[[0,0.5],[1,0.5]];portConstraint=eastwest;fontSize=16;" parent="156" vertex="1">
                    <mxGeometry y="98" width="328" height="30" as="geometry"/>
                </mxCell>
                <mxCell id="535" value="INTEGER" style="shape=partialRectangle;html=1;whiteSpace=wrap;connectable=0;strokeColor=#d79b00;overflow=hidden;fillColor=#ffe6cc;top=0;left=0;bottom=0;right=0;pointerEvents=1;fontSize=16;" parent="534" vertex="1">
                    <mxGeometry width="95" height="30" as="geometry">
                        <mxRectangle width="95" height="30" as="alternateBounds"/>
                    </mxGeometry>
                </mxCell>
                <mxCell id="536" value="id_user" style="shape=partialRectangle;html=1;whiteSpace=wrap;connectable=0;strokeColor=#d79b00;overflow=hidden;fillColor=#ffe6cc;top=0;left=0;bottom=0;right=0;pointerEvents=1;fontSize=16;" parent="534" vertex="1">
                    <mxGeometry x="95" width="124" height="30" as="geometry">
                        <mxRectangle width="124" height="30" as="alternateBounds"/>
                    </mxGeometry>
                </mxCell>
                <mxCell id="537" value="FK" style="shape=partialRectangle;html=1;whiteSpace=wrap;connectable=0;strokeColor=#d79b00;overflow=hidden;fillColor=#ffe6cc;top=0;left=0;bottom=0;right=0;pointerEvents=1;fontSize=16;" parent="534" vertex="1">
                    <mxGeometry x="219" width="109" height="30" as="geometry">
                        <mxRectangle width="109" height="30" as="alternateBounds"/>
                    </mxGeometry>
                </mxCell>
                <mxCell id="165" value="" style="shape=tableRow;horizontal=0;startSize=0;swimlaneHead=0;swimlaneBody=0;strokeColor=#d79b00;top=0;left=0;bottom=0;right=0;collapsible=0;dropTarget=0;fillColor=#ffe6cc;points=[[0,0.5],[1,0.5]];portConstraint=eastwest;fontSize=16;" parent="156" vertex="1">
                    <mxGeometry y="128" width="328" height="29" as="geometry"/>
                </mxCell>
                <mxCell id="166" value="TEXT" style="shape=partialRectangle;html=1;whiteSpace=wrap;connectable=0;strokeColor=#d79b00;overflow=hidden;fillColor=#ffe6cc;top=0;left=0;bottom=0;right=0;pointerEvents=1;fontSize=16;" parent="165" vertex="1">
                    <mxGeometry width="95" height="29" as="geometry">
                        <mxRectangle width="95" height="29" as="alternateBounds"/>
                    </mxGeometry>
                </mxCell>
                <mxCell id="167" value="name" style="shape=partialRectangle;html=1;whiteSpace=wrap;connectable=0;strokeColor=#d79b00;overflow=hidden;fillColor=#ffe6cc;top=0;left=0;bottom=0;right=0;pointerEvents=1;fontSize=16;" parent="165" vertex="1">
                    <mxGeometry x="95" width="124" height="29" as="geometry">
                        <mxRectangle width="124" height="29" as="alternateBounds"/>
                    </mxGeometry>
                </mxCell>
                <mxCell id="168" value="&lt;span style=&quot;color: rgb(0, 0, 0);&quot;&gt;&lt;font style=&quot;font-size: 12px;&quot;&gt;&lt;b&gt;NOT NULL&lt;/b&gt;&lt;/font&gt;&lt;/span&gt;" style="shape=partialRectangle;html=1;whiteSpace=wrap;connectable=0;strokeColor=#d79b00;overflow=hidden;fillColor=#ffe6cc;top=0;left=0;bottom=0;right=0;pointerEvents=1;fontSize=16;" parent="165" vertex="1">
                    <mxGeometry x="219" width="109" height="29" as="geometry">
                        <mxRectangle width="109" height="29" as="alternateBounds"/>
                    </mxGeometry>
                </mxCell>
                <mxCell id="169" value="" style="shape=tableRow;horizontal=0;startSize=0;swimlaneHead=0;swimlaneBody=0;strokeColor=#d79b00;top=0;left=0;bottom=0;right=0;collapsible=0;dropTarget=0;fillColor=#ffe6cc;points=[[0,0.5],[1,0.5]];portConstraint=eastwest;fontSize=16;" parent="156" vertex="1">
                    <mxGeometry y="157" width="328" height="30" as="geometry"/>
                </mxCell>
                <mxCell id="170" value="TEXT" style="shape=partialRectangle;html=1;whiteSpace=wrap;connectable=0;strokeColor=#d79b00;overflow=hidden;fillColor=#ffe6cc;top=0;left=0;bottom=0;right=0;pointerEvents=1;fontSize=16;" parent="169" vertex="1">
                    <mxGeometry width="95" height="30" as="geometry">
                        <mxRectangle width="95" height="30" as="alternateBounds"/>
                    </mxGeometry>
                </mxCell>
                <mxCell id="171" value="description" style="shape=partialRectangle;html=1;whiteSpace=wrap;connectable=0;strokeColor=#d79b00;overflow=hidden;fillColor=#ffe6cc;top=0;left=0;bottom=0;right=0;pointerEvents=1;fontSize=16;" parent="169" vertex="1">
                    <mxGeometry x="95" width="124" height="30" as="geometry">
                        <mxRectangle width="124" height="30" as="alternateBounds"/>
                    </mxGeometry>
                </mxCell>
                <mxCell id="172" value="&lt;font style=&quot;font-size: 12px;&quot;&gt;&lt;b&gt;NULL&lt;/b&gt;&lt;/font&gt;" style="shape=partialRectangle;html=1;whiteSpace=wrap;connectable=0;strokeColor=#d79b00;overflow=hidden;fillColor=#ffe6cc;top=0;left=0;bottom=0;right=0;pointerEvents=1;fontSize=16;" parent="169" vertex="1">
                    <mxGeometry x="219" width="109" height="30" as="geometry">
                        <mxRectangle width="109" height="30" as="alternateBounds"/>
                    </mxGeometry>
                </mxCell>
                <mxCell id="177" value="" style="shape=tableRow;horizontal=0;startSize=0;swimlaneHead=0;swimlaneBody=0;strokeColor=#d79b00;top=0;left=0;bottom=0;right=0;collapsible=0;dropTarget=0;fillColor=#ffe6cc;points=[[0,0.5],[1,0.5]];portConstraint=eastwest;fontSize=16;" parent="156" vertex="1">
                    <mxGeometry y="187" width="328" height="32" as="geometry"/>
                </mxCell>
                <mxCell id="178" value="BOOL" style="shape=partialRectangle;html=1;whiteSpace=wrap;connectable=0;strokeColor=#d79b00;overflow=hidden;fillColor=#ffe6cc;top=0;left=0;bottom=0;right=0;pointerEvents=1;fontSize=16;" parent="177" vertex="1">
                    <mxGeometry width="95" height="32" as="geometry">
                        <mxRectangle width="95" height="32" as="alternateBounds"/>
                    </mxGeometry>
                </mxCell>
                <mxCell id="179" value="statut" style="shape=partialRectangle;html=1;whiteSpace=wrap;connectable=0;strokeColor=#d79b00;overflow=hidden;fillColor=#ffe6cc;top=0;left=0;bottom=0;right=0;pointerEvents=1;fontSize=16;" parent="177" vertex="1">
                    <mxGeometry x="95" width="124" height="32" as="geometry">
                        <mxRectangle width="124" height="32" as="alternateBounds"/>
                    </mxGeometry>
                </mxCell>
                <mxCell id="180" value="&lt;font style=&quot;font-size: 12px;&quot;&gt;&lt;b&gt;NOT NULL&lt;/b&gt;&lt;/font&gt;" style="shape=partialRectangle;html=1;whiteSpace=wrap;connectable=0;strokeColor=#d79b00;overflow=hidden;fillColor=#ffe6cc;top=0;left=0;bottom=0;right=0;pointerEvents=1;fontSize=16;" parent="177" vertex="1">
                    <mxGeometry x="219" width="109" height="32" as="geometry">
                        <mxRectangle width="109" height="32" as="alternateBounds"/>
                    </mxGeometry>
                </mxCell>
                <mxCell id="181" value="" style="shape=tableRow;horizontal=0;startSize=0;swimlaneHead=0;swimlaneBody=0;strokeColor=#d79b00;top=0;left=0;bottom=0;right=0;collapsible=0;dropTarget=0;fillColor=#ffe6cc;points=[[0,0.5],[1,0.5]];portConstraint=eastwest;fontSize=16;" parent="156" vertex="1">
                    <mxGeometry y="219" width="328" height="63" as="geometry"/>
                </mxCell>
                <mxCell id="182" value="DATE" style="shape=partialRectangle;html=1;whiteSpace=wrap;connectable=0;strokeColor=#d79b00;overflow=hidden;fillColor=#ffe6cc;top=0;left=0;bottom=0;right=0;pointerEvents=1;fontSize=16;" parent="181" vertex="1">
                    <mxGeometry width="95" height="63" as="geometry">
                        <mxRectangle width="95" height="63" as="alternateBounds"/>
                    </mxGeometry>
                </mxCell>
                <mxCell id="183" value="&lt;span style=&quot;color: rgb(0, 0, 0);&quot;&gt;created_at&lt;/span&gt;" style="shape=partialRectangle;html=1;whiteSpace=wrap;connectable=0;strokeColor=#d79b00;overflow=hidden;fillColor=#ffe6cc;top=0;left=0;bottom=0;right=0;pointerEvents=1;fontSize=16;" parent="181" vertex="1">
                    <mxGeometry x="95" width="124" height="63" as="geometry">
                        <mxRectangle width="124" height="63" as="alternateBounds"/>
                    </mxGeometry>
                </mxCell>
                <mxCell id="184" value="&lt;span style=&quot;color: rgb(0, 0, 0);&quot;&gt;&lt;font style=&quot;font-size: 12px;&quot;&gt;&lt;b&gt;NOT NULL&lt;/b&gt;&lt;/font&gt;&lt;/span&gt;&lt;div&gt;&lt;span style=&quot;color: rgb(0, 0, 0);&quot;&gt;&lt;font style=&quot;font-size: 12px;&quot;&gt;defaut, CURRENT DATE&lt;/font&gt;&lt;/span&gt;&lt;/div&gt;" style="shape=partialRectangle;html=1;whiteSpace=wrap;connectable=0;strokeColor=#d79b00;overflow=hidden;fillColor=#ffe6cc;top=0;left=0;bottom=0;right=0;pointerEvents=1;fontSize=16;" parent="181" vertex="1">
                    <mxGeometry x="219" width="109" height="63" as="geometry">
                        <mxRectangle width="109" height="63" as="alternateBounds"/>
                    </mxGeometry>
                </mxCell>
                <mxCell id="185" value="" style="shape=tableRow;horizontal=0;startSize=0;swimlaneHead=0;swimlaneBody=0;strokeColor=#d79b00;top=0;left=0;bottom=0;right=0;collapsible=0;dropTarget=0;fillColor=#ffe6cc;points=[[0,0.5],[1,0.5]];portConstraint=eastwest;fontSize=16;" parent="156" vertex="1">
                    <mxGeometry y="282" width="328" height="44" as="geometry"/>
                </mxCell>
                <mxCell id="186" value="DATE" style="shape=partialRectangle;html=1;whiteSpace=wrap;connectable=0;strokeColor=#d79b00;overflow=hidden;fillColor=#ffe6cc;top=0;left=0;bottom=0;right=0;pointerEvents=1;fontSize=16;" parent="185" vertex="1">
                    <mxGeometry width="95" height="44" as="geometry">
                        <mxRectangle width="95" height="44" as="alternateBounds"/>
                    </mxGeometry>
                </mxCell>
                <mxCell id="187" value="updated_at" style="shape=partialRectangle;html=1;whiteSpace=wrap;connectable=0;strokeColor=#d79b00;overflow=hidden;fillColor=#ffe6cc;top=0;left=0;bottom=0;right=0;pointerEvents=1;fontSize=16;" parent="185" vertex="1">
                    <mxGeometry x="95" width="124" height="44" as="geometry">
                        <mxRectangle width="124" height="44" as="alternateBounds"/>
                    </mxGeometry>
                </mxCell>
                <mxCell id="188" value="&lt;span style=&quot;color: rgb(0, 0, 0);&quot;&gt;&lt;font style=&quot;font-size: 12px;&quot;&gt;&lt;b&gt;NOT NULL&lt;/b&gt;&lt;/font&gt;&lt;/span&gt;&lt;div&gt;&lt;span style=&quot;color: rgb(0, 0, 0);&quot;&gt;&lt;font style=&quot;font-size: 12px;&quot;&gt;defaut, &lt;font style=&quot;&quot;&gt;CURRENT&lt;/font&gt; DATE&lt;/font&gt;&lt;/span&gt;&lt;/div&gt;" style="shape=partialRectangle;html=1;whiteSpace=wrap;connectable=0;strokeColor=#d79b00;overflow=hidden;fillColor=#ffe6cc;top=0;left=0;bottom=0;right=0;pointerEvents=1;fontSize=16;" parent="185" vertex="1">
                    <mxGeometry x="219" width="109" height="44" as="geometry">
                        <mxRectangle width="109" height="44" as="alternateBounds"/>
                    </mxGeometry>
                </mxCell>
                <mxCell id="474" value="" style="shape=tableRow;horizontal=0;startSize=0;swimlaneHead=0;swimlaneBody=0;strokeColor=#d79b00;top=0;left=0;bottom=0;right=0;collapsible=0;dropTarget=0;fillColor=#ffe6cc;points=[[0,0.5],[1,0.5]];portConstraint=eastwest;fontSize=16;" parent="156" vertex="1">
                    <mxGeometry y="326" width="328" height="45" as="geometry"/>
                </mxCell>
                <mxCell id="475" value="DATE" style="shape=partialRectangle;html=1;whiteSpace=wrap;connectable=0;strokeColor=#d79b00;overflow=hidden;fillColor=#ffe6cc;top=0;left=0;bottom=0;right=0;pointerEvents=1;fontSize=16;" parent="474" vertex="1">
                    <mxGeometry width="95" height="45" as="geometry">
                        <mxRectangle width="95" height="45" as="alternateBounds"/>
                    </mxGeometry>
                </mxCell>
                <mxCell id="476" value="&lt;span style=&quot;color: rgb(0, 0, 0);&quot;&gt;deleted_at&lt;/span&gt;" style="shape=partialRectangle;html=1;whiteSpace=wrap;connectable=0;strokeColor=#d79b00;overflow=hidden;fillColor=#ffe6cc;top=0;left=0;bottom=0;right=0;pointerEvents=1;fontSize=16;" parent="474" vertex="1">
                    <mxGeometry x="95" width="124" height="45" as="geometry">
                        <mxRectangle width="124" height="45" as="alternateBounds"/>
                    </mxGeometry>
                </mxCell>
                <mxCell id="477" value="&lt;font style=&quot;font-size: 12px;&quot;&gt;&lt;b&gt;NULL&lt;/b&gt;&lt;/font&gt;" style="shape=partialRectangle;html=1;whiteSpace=wrap;connectable=0;strokeColor=#d79b00;overflow=hidden;fillColor=#ffe6cc;top=0;left=0;bottom=0;right=0;pointerEvents=1;fontSize=16;" parent="474" vertex="1">
                    <mxGeometry x="219" width="109" height="45" as="geometry">
                        <mxRectangle width="109" height="45" as="alternateBounds"/>
                    </mxGeometry>
                </mxCell>
                <mxCell id="189" value="USER_ROLE" style="shape=table;startSize=30;container=1;collapsible=0;childLayout=tableLayout;strokeColor=#6c8ebf;fontSize=16;fillColor=#dae8fc;strokeWidth=2;perimeterSpacing=1;shadow=1;swimlaneFillColor=default;" parent="1" vertex="1">
                    <mxGeometry x="800" y="120" width="240" height="150" as="geometry"/>
                </mxCell>
                <mxCell id="198" value="" style="shape=tableRow;horizontal=0;startSize=0;swimlaneHead=0;swimlaneBody=0;strokeColor=inherit;top=0;left=0;bottom=0;right=0;collapsible=0;dropTarget=0;fillColor=none;points=[[0,0.5],[1,0.5]];portConstraint=eastwest;fontSize=16;" parent="189" vertex="1">
                    <mxGeometry y="30" width="240" height="40" as="geometry"/>
                </mxCell>
                <mxCell id="199" value="INTEGER" style="shape=partialRectangle;html=1;whiteSpace=wrap;connectable=0;strokeColor=inherit;overflow=hidden;fillColor=none;top=0;left=0;bottom=0;right=0;pointerEvents=1;fontSize=16;" parent="198" vertex="1">
                    <mxGeometry width="77" height="40" as="geometry">
                        <mxRectangle width="77" height="40" as="alternateBounds"/>
                    </mxGeometry>
                </mxCell>
                <mxCell id="200" value="id_user_role" style="shape=partialRectangle;html=1;whiteSpace=wrap;connectable=0;strokeColor=inherit;overflow=hidden;fillColor=none;top=0;left=0;bottom=0;right=0;pointerEvents=1;fontSize=16;" parent="198" vertex="1">
                    <mxGeometry x="77" width="114" height="40" as="geometry">
                        <mxRectangle width="114" height="40" as="alternateBounds"/>
                    </mxGeometry>
                </mxCell>
                <mxCell id="201" value="PK" style="shape=partialRectangle;html=1;whiteSpace=wrap;connectable=0;strokeColor=inherit;overflow=hidden;fillColor=none;top=0;left=0;bottom=0;right=0;pointerEvents=1;fontSize=16;" parent="198" vertex="1">
                    <mxGeometry x="191" width="49" height="40" as="geometry">
                        <mxRectangle width="49" height="40" as="alternateBounds"/>
                    </mxGeometry>
                </mxCell>
                <mxCell id="190" value="" style="shape=tableRow;horizontal=0;startSize=0;swimlaneHead=0;swimlaneBody=0;strokeColor=inherit;top=0;left=0;bottom=0;right=0;collapsible=0;dropTarget=0;fillColor=none;points=[[0,0.5],[1,0.5]];portConstraint=eastwest;fontSize=16;" parent="189" vertex="1">
                    <mxGeometry y="70" width="240" height="40" as="geometry"/>
                </mxCell>
                <mxCell id="191" value="INTEGER" style="shape=partialRectangle;html=1;whiteSpace=wrap;connectable=0;strokeColor=inherit;overflow=hidden;fillColor=none;top=0;left=0;bottom=0;right=0;pointerEvents=1;fontSize=16;" parent="190" vertex="1">
                    <mxGeometry width="77" height="40" as="geometry">
                        <mxRectangle width="77" height="40" as="alternateBounds"/>
                    </mxGeometry>
                </mxCell>
                <mxCell id="192" value="id_role" style="shape=partialRectangle;html=1;whiteSpace=wrap;connectable=0;strokeColor=inherit;overflow=hidden;fillColor=none;top=0;left=0;bottom=0;right=0;pointerEvents=1;fontSize=16;" parent="190" vertex="1">
                    <mxGeometry x="77" width="114" height="40" as="geometry">
                        <mxRectangle width="114" height="40" as="alternateBounds"/>
                    </mxGeometry>
                </mxCell>
                <mxCell id="193" value="FK" style="shape=partialRectangle;html=1;whiteSpace=wrap;connectable=0;strokeColor=inherit;overflow=hidden;fillColor=none;top=0;left=0;bottom=0;right=0;pointerEvents=1;fontSize=16;" parent="190" vertex="1">
                    <mxGeometry x="191" width="49" height="40" as="geometry">
                        <mxRectangle width="49" height="40" as="alternateBounds"/>
                    </mxGeometry>
                </mxCell>
                <mxCell id="194" value="" style="shape=tableRow;horizontal=0;startSize=0;swimlaneHead=0;swimlaneBody=0;strokeColor=inherit;top=0;left=0;bottom=0;right=0;collapsible=0;dropTarget=0;fillColor=none;points=[[0,0.5],[1,0.5]];portConstraint=eastwest;fontSize=16;" parent="189" vertex="1">
                    <mxGeometry y="110" width="240" height="40" as="geometry"/>
                </mxCell>
                <mxCell id="195" value="INTEGER" style="shape=partialRectangle;html=1;whiteSpace=wrap;connectable=0;strokeColor=inherit;overflow=hidden;fillColor=none;top=0;left=0;bottom=0;right=0;pointerEvents=1;fontSize=16;" parent="194" vertex="1">
                    <mxGeometry width="77" height="40" as="geometry">
                        <mxRectangle width="77" height="40" as="alternateBounds"/>
                    </mxGeometry>
                </mxCell>
                <mxCell id="196" value="id_user" style="shape=partialRectangle;html=1;whiteSpace=wrap;connectable=0;strokeColor=inherit;overflow=hidden;fillColor=none;top=0;left=0;bottom=0;right=0;pointerEvents=1;fontSize=16;" parent="194" vertex="1">
                    <mxGeometry x="77" width="114" height="40" as="geometry">
                        <mxRectangle width="114" height="40" as="alternateBounds"/>
                    </mxGeometry>
                </mxCell>
                <mxCell id="197" value="FK" style="shape=partialRectangle;html=1;whiteSpace=wrap;connectable=0;strokeColor=inherit;overflow=hidden;fillColor=none;top=0;left=0;bottom=0;right=0;pointerEvents=1;fontSize=16;" parent="194" vertex="1">
                    <mxGeometry x="191" width="49" height="40" as="geometry">
                        <mxRectangle width="49" height="40" as="alternateBounds"/>
                    </mxGeometry>
                </mxCell>
                <mxCell id="215" value="NOTICE" style="shape=table;startSize=30;container=1;collapsible=0;childLayout=tableLayout;strokeColor=#23445d;fontSize=16;fillColor=#bac8d3;strokeWidth=2;perimeterSpacing=1;shadow=1;swimlaneFillColor=default;" parent="1" vertex="1">
                    <mxGeometry x="840" y="850" width="311.75" height="263.7301587301597" as="geometry"/>
                </mxCell>
                <mxCell id="216" value="" style="shape=tableRow;horizontal=0;startSize=0;swimlaneHead=0;swimlaneBody=0;strokeColor=#23445d;top=0;left=0;bottom=0;right=0;collapsible=0;dropTarget=0;fillColor=#bac8d3;points=[[0,0.5],[1,0.5]];portConstraint=eastwest;fontSize=16;" parent="215" vertex="1">
                    <mxGeometry y="30" width="311.75" height="37" as="geometry"/>
                </mxCell>
                <mxCell id="217" value="INTEGER" style="shape=partialRectangle;html=1;whiteSpace=wrap;connectable=0;strokeColor=#23445d;overflow=hidden;fillColor=#bac8d3;top=0;left=0;bottom=0;right=0;pointerEvents=1;fontSize=16;" parent="216" vertex="1">
                    <mxGeometry width="85" height="37" as="geometry">
                        <mxRectangle width="85" height="37" as="alternateBounds"/>
                    </mxGeometry>
                </mxCell>
                <mxCell id="218" value="id_notice" style="shape=partialRectangle;html=1;whiteSpace=wrap;connectable=0;strokeColor=#23445d;overflow=hidden;fillColor=#bac8d3;top=0;left=0;bottom=0;right=0;pointerEvents=1;fontSize=16;" parent="216" vertex="1">
                    <mxGeometry x="85" width="113" height="37" as="geometry">
                        <mxRectangle width="113" height="37" as="alternateBounds"/>
                    </mxGeometry>
                </mxCell>
                <mxCell id="219" value="PK" style="shape=partialRectangle;html=1;whiteSpace=wrap;connectable=0;strokeColor=#23445d;overflow=hidden;fillColor=#bac8d3;top=0;left=0;bottom=0;right=0;pointerEvents=1;fontSize=16;" parent="216" vertex="1">
                    <mxGeometry x="198" width="114" height="37" as="geometry">
                        <mxRectangle width="114" height="37" as="alternateBounds"/>
                    </mxGeometry>
                </mxCell>
                <mxCell id="220" value="" style="shape=tableRow;horizontal=0;startSize=0;swimlaneHead=0;swimlaneBody=0;strokeColor=#23445d;top=0;left=0;bottom=0;right=0;collapsible=0;dropTarget=0;fillColor=#bac8d3;points=[[0,0.5],[1,0.5]];portConstraint=eastwest;fontSize=16;" parent="215" vertex="1">
                    <mxGeometry y="67" width="311.75" height="38" as="geometry"/>
                </mxCell>
                <mxCell id="221" value="INTEGER" style="shape=partialRectangle;html=1;whiteSpace=wrap;connectable=0;strokeColor=#23445d;overflow=hidden;fillColor=#bac8d3;top=0;left=0;bottom=0;right=0;pointerEvents=1;fontSize=16;" parent="220" vertex="1">
                    <mxGeometry width="85" height="38" as="geometry">
                        <mxRectangle width="85" height="38" as="alternateBounds"/>
                    </mxGeometry>
                </mxCell>
                <mxCell id="222" value="id_user" style="shape=partialRectangle;html=1;whiteSpace=wrap;connectable=0;strokeColor=#23445d;overflow=hidden;fillColor=#bac8d3;top=0;left=0;bottom=0;right=0;pointerEvents=1;fontSize=16;" parent="220" vertex="1">
                    <mxGeometry x="85" width="113" height="38" as="geometry">
                        <mxRectangle width="113" height="38" as="alternateBounds"/>
                    </mxGeometry>
                </mxCell>
                <mxCell id="223" value="FK" style="shape=partialRectangle;html=1;whiteSpace=wrap;connectable=0;strokeColor=#23445d;overflow=hidden;fillColor=#bac8d3;top=0;left=0;bottom=0;right=0;pointerEvents=1;fontSize=16;" parent="220" vertex="1">
                    <mxGeometry x="198" width="114" height="38" as="geometry">
                        <mxRectangle width="114" height="38" as="alternateBounds"/>
                    </mxGeometry>
                </mxCell>
                <mxCell id="224" value="" style="shape=tableRow;horizontal=0;startSize=0;swimlaneHead=0;swimlaneBody=0;strokeColor=#23445d;top=0;left=0;bottom=0;right=0;collapsible=0;dropTarget=0;fillColor=#bac8d3;points=[[0,0.5],[1,0.5]];portConstraint=eastwest;fontSize=16;" parent="215" vertex="1">
                    <mxGeometry y="105" width="311.75" height="30" as="geometry"/>
                </mxCell>
                <mxCell id="225" value="INTEGER" style="shape=partialRectangle;html=1;whiteSpace=wrap;connectable=0;strokeColor=#23445d;overflow=hidden;fillColor=#bac8d3;top=0;left=0;bottom=0;right=0;pointerEvents=1;fontSize=16;" parent="224" vertex="1">
                    <mxGeometry width="85" height="30" as="geometry">
                        <mxRectangle width="85" height="30" as="alternateBounds"/>
                    </mxGeometry>
                </mxCell>
                <mxCell id="226" value="id_book" style="shape=partialRectangle;html=1;whiteSpace=wrap;connectable=0;strokeColor=#23445d;overflow=hidden;fillColor=#bac8d3;top=0;left=0;bottom=0;right=0;pointerEvents=1;fontSize=16;" parent="224" vertex="1">
                    <mxGeometry x="85" width="113" height="30" as="geometry">
                        <mxRectangle width="113" height="30" as="alternateBounds"/>
                    </mxGeometry>
                </mxCell>
                <mxCell id="227" value="FK" style="shape=partialRectangle;html=1;whiteSpace=wrap;connectable=0;strokeColor=#23445d;overflow=hidden;fillColor=#bac8d3;top=0;left=0;bottom=0;right=0;pointerEvents=1;fontSize=16;" parent="224" vertex="1">
                    <mxGeometry x="198" width="114" height="30" as="geometry">
                        <mxRectangle width="114" height="30" as="alternateBounds"/>
                    </mxGeometry>
                </mxCell>
                <mxCell id="228" value="" style="shape=tableRow;horizontal=0;startSize=0;swimlaneHead=0;swimlaneBody=0;strokeColor=#23445d;top=0;left=0;bottom=0;right=0;collapsible=0;dropTarget=0;fillColor=#bac8d3;points=[[0,0.5],[1,0.5]];portConstraint=eastwest;fontSize=16;" parent="215" vertex="1">
                    <mxGeometry y="135" width="311.75" height="31" as="geometry"/>
                </mxCell>
                <mxCell id="229" value="TEXT" style="shape=partialRectangle;html=1;whiteSpace=wrap;connectable=0;strokeColor=#23445d;overflow=hidden;fillColor=#bac8d3;top=0;left=0;bottom=0;right=0;pointerEvents=1;fontSize=16;" parent="228" vertex="1">
                    <mxGeometry width="85" height="31" as="geometry">
                        <mxRectangle width="85" height="31" as="alternateBounds"/>
                    </mxGeometry>
                </mxCell>
                <mxCell id="230" value="comment" style="shape=partialRectangle;html=1;whiteSpace=wrap;connectable=0;strokeColor=#23445d;overflow=hidden;fillColor=#bac8d3;top=0;left=0;bottom=0;right=0;pointerEvents=1;fontSize=16;" parent="228" vertex="1">
                    <mxGeometry x="85" width="113" height="31" as="geometry">
                        <mxRectangle width="113" height="31" as="alternateBounds"/>
                    </mxGeometry>
                </mxCell>
                <mxCell id="231" value="&lt;font style=&quot;font-size: 12px;&quot;&gt;&lt;b&gt;NOT NULL&lt;/b&gt;&lt;/font&gt;" style="shape=partialRectangle;html=1;whiteSpace=wrap;connectable=0;strokeColor=#23445d;overflow=hidden;fillColor=#bac8d3;top=0;left=0;bottom=0;right=0;pointerEvents=1;fontSize=16;" parent="228" vertex="1">
                    <mxGeometry x="198" width="114" height="31" as="geometry">
                        <mxRectangle width="114" height="31" as="alternateBounds"/>
                    </mxGeometry>
                </mxCell>
                <mxCell id="244" value="" style="shape=tableRow;horizontal=0;startSize=0;swimlaneHead=0;swimlaneBody=0;strokeColor=#23445d;top=0;left=0;bottom=0;right=0;collapsible=0;dropTarget=0;fillColor=#bac8d3;points=[[0,0.5],[1,0.5]];portConstraint=eastwest;fontSize=16;" parent="215" vertex="1">
                    <mxGeometry y="166" width="311.75" height="59" as="geometry"/>
                </mxCell>
                <mxCell id="245" value="DATE" style="shape=partialRectangle;html=1;whiteSpace=wrap;connectable=0;strokeColor=#23445d;overflow=hidden;fillColor=#bac8d3;top=0;left=0;bottom=0;right=0;pointerEvents=1;fontSize=16;" parent="244" vertex="1">
                    <mxGeometry width="85" height="59" as="geometry">
                        <mxRectangle width="85" height="59" as="alternateBounds"/>
                    </mxGeometry>
                </mxCell>
                <mxCell id="246" value="published_at" style="shape=partialRectangle;html=1;whiteSpace=wrap;connectable=0;strokeColor=#23445d;overflow=hidden;fillColor=#bac8d3;top=0;left=0;bottom=0;right=0;pointerEvents=1;fontSize=16;" parent="244" vertex="1">
                    <mxGeometry x="85" width="113" height="59" as="geometry">
                        <mxRectangle width="113" height="59" as="alternateBounds"/>
                    </mxGeometry>
                </mxCell>
                <mxCell id="247" value="&lt;span style=&quot;color: rgb(0, 0, 0);&quot;&gt;&lt;font style=&quot;font-size: 12px;&quot;&gt;&lt;b&gt;NOT NULL&lt;/b&gt;&lt;/font&gt;&lt;/span&gt;&lt;div&gt;&lt;span style=&quot;color: rgb(0, 0, 0);&quot;&gt;&lt;font style=&quot;font-size: 12px;&quot;&gt;default&lt;b&gt;, &lt;/b&gt;CURRENT&lt;b&gt; &lt;/b&gt;DATE&lt;/font&gt;&lt;/span&gt;&lt;/div&gt;" style="shape=partialRectangle;html=1;whiteSpace=wrap;connectable=0;strokeColor=#23445d;overflow=hidden;fillColor=#bac8d3;top=0;left=0;bottom=0;right=0;pointerEvents=1;fontSize=16;" parent="244" vertex="1">
                    <mxGeometry x="198" width="114" height="59" as="geometry">
                        <mxRectangle width="114" height="59" as="alternateBounds"/>
                    </mxGeometry>
                </mxCell>
                <mxCell id="248" value="" style="shape=tableRow;horizontal=0;startSize=0;swimlaneHead=0;swimlaneBody=0;strokeColor=#23445d;top=0;left=0;bottom=0;right=0;collapsible=0;dropTarget=0;fillColor=#bac8d3;points=[[0,0.5],[1,0.5]];portConstraint=eastwest;fontSize=16;" parent="215" vertex="1">
                    <mxGeometry y="225" width="311.75" height="39" as="geometry"/>
                </mxCell>
                <mxCell id="249" value="DATE" style="shape=partialRectangle;html=1;whiteSpace=wrap;connectable=0;strokeColor=#23445d;overflow=hidden;fillColor=#bac8d3;top=0;left=0;bottom=0;right=0;pointerEvents=1;fontSize=16;" parent="248" vertex="1">
                    <mxGeometry width="85" height="39" as="geometry">
                        <mxRectangle width="85" height="39" as="alternateBounds"/>
                    </mxGeometry>
                </mxCell>
                <mxCell id="250" value="updated_at" style="shape=partialRectangle;html=1;whiteSpace=wrap;connectable=0;strokeColor=#23445d;overflow=hidden;fillColor=#bac8d3;top=0;left=0;bottom=0;right=0;pointerEvents=1;fontSize=16;" parent="248" vertex="1">
                    <mxGeometry x="85" width="113" height="39" as="geometry">
                        <mxRectangle width="113" height="39" as="alternateBounds"/>
                    </mxGeometry>
                </mxCell>
                <mxCell id="251" value="&lt;font style=&quot;font-size: 12px;&quot;&gt;&lt;b&gt;NULL&lt;/b&gt;&lt;/font&gt;" style="shape=partialRectangle;html=1;whiteSpace=wrap;connectable=0;strokeColor=#23445d;overflow=hidden;fillColor=#bac8d3;top=0;left=0;bottom=0;right=0;pointerEvents=1;fontSize=16;" parent="248" vertex="1">
                    <mxGeometry x="198" width="114" height="39" as="geometry">
                        <mxRectangle width="114" height="39" as="alternateBounds"/>
                    </mxGeometry>
                </mxCell>
                <mxCell id="252" value="RATE" style="shape=table;startSize=30;container=1;collapsible=0;childLayout=tableLayout;strokeColor=#0e8088;fontSize=16;fillColor=#b0e3e6;strokeWidth=2;perimeterSpacing=1;shadow=1;swimlaneFillColor=default;" parent="1" vertex="1">
                    <mxGeometry x="840" y="1210" width="311" height="278.53571428571513" as="geometry"/>
                </mxCell>
                <mxCell id="253" value="" style="shape=tableRow;horizontal=0;startSize=0;swimlaneHead=0;swimlaneBody=0;strokeColor=#0e8088;top=0;left=0;bottom=0;right=0;collapsible=0;dropTarget=0;fillColor=#b0e3e6;points=[[0,0.5],[1,0.5]];portConstraint=eastwest;fontSize=16;" parent="252" vertex="1">
                    <mxGeometry y="30" width="311" height="32" as="geometry"/>
                </mxCell>
                <mxCell id="254" value="INTEGER" style="shape=partialRectangle;html=1;whiteSpace=wrap;connectable=0;strokeColor=#0e8088;overflow=hidden;fillColor=#b0e3e6;top=0;left=0;bottom=0;right=0;pointerEvents=1;fontSize=16;" parent="253" vertex="1">
                    <mxGeometry width="88" height="32" as="geometry">
                        <mxRectangle width="88" height="32" as="alternateBounds"/>
                    </mxGeometry>
                </mxCell>
                <mxCell id="255" value="id_rate" style="shape=partialRectangle;html=1;whiteSpace=wrap;connectable=0;strokeColor=#0e8088;overflow=hidden;fillColor=#b0e3e6;top=0;left=0;bottom=0;right=0;pointerEvents=1;fontSize=16;" parent="253" vertex="1">
                    <mxGeometry x="88" width="119" height="32" as="geometry">
                        <mxRectangle width="119" height="32" as="alternateBounds"/>
                    </mxGeometry>
                </mxCell>
                <mxCell id="256" value="PK" style="shape=partialRectangle;html=1;whiteSpace=wrap;connectable=0;strokeColor=#0e8088;overflow=hidden;fillColor=#b0e3e6;top=0;left=0;bottom=0;right=0;pointerEvents=1;fontSize=16;" parent="253" vertex="1">
                    <mxGeometry x="207" width="104" height="32" as="geometry">
                        <mxRectangle width="104" height="32" as="alternateBounds"/>
                    </mxGeometry>
                </mxCell>
                <mxCell id="257" value="" style="shape=tableRow;horizontal=0;startSize=0;swimlaneHead=0;swimlaneBody=0;strokeColor=#0e8088;top=0;left=0;bottom=0;right=0;collapsible=0;dropTarget=0;fillColor=#b0e3e6;points=[[0,0.5],[1,0.5]];portConstraint=eastwest;fontSize=16;" parent="252" vertex="1">
                    <mxGeometry y="62" width="311" height="30" as="geometry"/>
                </mxCell>
                <mxCell id="258" value="INTEGER" style="shape=partialRectangle;html=1;whiteSpace=wrap;connectable=0;strokeColor=#0e8088;overflow=hidden;fillColor=#b0e3e6;top=0;left=0;bottom=0;right=0;pointerEvents=1;fontSize=16;" parent="257" vertex="1">
                    <mxGeometry width="88" height="30" as="geometry">
                        <mxRectangle width="88" height="30" as="alternateBounds"/>
                    </mxGeometry>
                </mxCell>
                <mxCell id="259" value="id_user" style="shape=partialRectangle;html=1;whiteSpace=wrap;connectable=0;strokeColor=#0e8088;overflow=hidden;fillColor=#b0e3e6;top=0;left=0;bottom=0;right=0;pointerEvents=1;fontSize=16;" parent="257" vertex="1">
                    <mxGeometry x="88" width="119" height="30" as="geometry">
                        <mxRectangle width="119" height="30" as="alternateBounds"/>
                    </mxGeometry>
                </mxCell>
                <mxCell id="260" value="FK" style="shape=partialRectangle;html=1;whiteSpace=wrap;connectable=0;strokeColor=#0e8088;overflow=hidden;fillColor=#b0e3e6;top=0;left=0;bottom=0;right=0;pointerEvents=1;fontSize=16;" parent="257" vertex="1">
                    <mxGeometry x="207" width="104" height="30" as="geometry">
                        <mxRectangle width="104" height="30" as="alternateBounds"/>
                    </mxGeometry>
                </mxCell>
                <mxCell id="265" value="" style="shape=tableRow;horizontal=0;startSize=0;swimlaneHead=0;swimlaneBody=0;strokeColor=#0e8088;top=0;left=0;bottom=0;right=0;collapsible=0;dropTarget=0;fillColor=#b0e3e6;points=[[0,0.5],[1,0.5]];portConstraint=eastwest;fontSize=16;" parent="252" vertex="1">
                    <mxGeometry y="92" width="311" height="32" as="geometry"/>
                </mxCell>
                <mxCell id="266" value="INTEGER" style="shape=partialRectangle;html=1;whiteSpace=wrap;connectable=0;strokeColor=#0e8088;overflow=hidden;fillColor=#b0e3e6;top=0;left=0;bottom=0;right=0;pointerEvents=1;fontSize=16;" parent="265" vertex="1">
                    <mxGeometry width="88" height="32" as="geometry">
                        <mxRectangle width="88" height="32" as="alternateBounds"/>
                    </mxGeometry>
                </mxCell>
                <mxCell id="267" value="id_book" style="shape=partialRectangle;html=1;whiteSpace=wrap;connectable=0;strokeColor=#0e8088;overflow=hidden;fillColor=#b0e3e6;top=0;left=0;bottom=0;right=0;pointerEvents=1;fontSize=16;" parent="265" vertex="1">
                    <mxGeometry x="88" width="119" height="32" as="geometry">
                        <mxRectangle width="119" height="32" as="alternateBounds"/>
                    </mxGeometry>
                </mxCell>
                <mxCell id="268" value="FK" style="shape=partialRectangle;html=1;whiteSpace=wrap;connectable=0;strokeColor=#0e8088;overflow=hidden;fillColor=#b0e3e6;top=0;left=0;bottom=0;right=0;pointerEvents=1;fontSize=16;" parent="265" vertex="1">
                    <mxGeometry x="207" width="104" height="32" as="geometry">
                        <mxRectangle width="104" height="32" as="alternateBounds"/>
                    </mxGeometry>
                </mxCell>
                <mxCell id="261" value="" style="shape=tableRow;horizontal=0;startSize=0;swimlaneHead=0;swimlaneBody=0;strokeColor=#0e8088;top=0;left=0;bottom=0;right=0;collapsible=0;dropTarget=0;fillColor=#b0e3e6;points=[[0,0.5],[1,0.5]];portConstraint=eastwest;fontSize=16;" parent="252" vertex="1">
                    <mxGeometry y="124" width="311" height="26" as="geometry"/>
                </mxCell>
                <mxCell id="262" value="INTEGER" style="shape=partialRectangle;html=1;whiteSpace=wrap;connectable=0;strokeColor=#0e8088;overflow=hidden;fillColor=#b0e3e6;top=0;left=0;bottom=0;right=0;pointerEvents=1;fontSize=16;" parent="261" vertex="1">
                    <mxGeometry width="88" height="26" as="geometry">
                        <mxRectangle width="88" height="26" as="alternateBounds"/>
                    </mxGeometry>
                </mxCell>
                <mxCell id="263" value="id_reading_list" style="shape=partialRectangle;html=1;whiteSpace=wrap;connectable=0;strokeColor=#0e8088;overflow=hidden;fillColor=#b0e3e6;top=0;left=0;bottom=0;right=0;pointerEvents=1;fontSize=16;" parent="261" vertex="1">
                    <mxGeometry x="88" width="119" height="26" as="geometry">
                        <mxRectangle width="119" height="26" as="alternateBounds"/>
                    </mxGeometry>
                </mxCell>
                <mxCell id="264" value="FK" style="shape=partialRectangle;html=1;whiteSpace=wrap;connectable=0;strokeColor=#0e8088;overflow=hidden;fillColor=#b0e3e6;top=0;left=0;bottom=0;right=0;pointerEvents=1;fontSize=16;" parent="261" vertex="1">
                    <mxGeometry x="207" width="104" height="26" as="geometry">
                        <mxRectangle width="104" height="26" as="alternateBounds"/>
                    </mxGeometry>
                </mxCell>
                <mxCell id="269" value="" style="shape=tableRow;horizontal=0;startSize=0;swimlaneHead=0;swimlaneBody=0;strokeColor=#0e8088;top=0;left=0;bottom=0;right=0;collapsible=0;dropTarget=0;fillColor=#b0e3e6;points=[[0,0.5],[1,0.5]];portConstraint=eastwest;fontSize=16;" parent="252" vertex="1">
                    <mxGeometry y="150" width="311" height="31" as="geometry"/>
                </mxCell>
                <mxCell id="270" value="INTEGER" style="shape=partialRectangle;html=1;whiteSpace=wrap;connectable=0;strokeColor=#0e8088;overflow=hidden;fillColor=#b0e3e6;top=0;left=0;bottom=0;right=0;pointerEvents=1;fontSize=16;" parent="269" vertex="1">
                    <mxGeometry width="88" height="31" as="geometry">
                        <mxRectangle width="88" height="31" as="alternateBounds"/>
                    </mxGeometry>
                </mxCell>
                <mxCell id="271" value="rate" style="shape=partialRectangle;html=1;whiteSpace=wrap;connectable=0;strokeColor=#0e8088;overflow=hidden;fillColor=#b0e3e6;top=0;left=0;bottom=0;right=0;pointerEvents=1;fontSize=16;" parent="269" vertex="1">
                    <mxGeometry x="88" width="119" height="31" as="geometry">
                        <mxRectangle width="119" height="31" as="alternateBounds"/>
                    </mxGeometry>
                </mxCell>
                <mxCell id="272" value="&lt;font style=&quot;font-size: 12px;&quot;&gt;&lt;b&gt;NOT NULL&lt;/b&gt;&lt;/font&gt;" style="shape=partialRectangle;html=1;whiteSpace=wrap;connectable=0;strokeColor=#0e8088;overflow=hidden;fillColor=#b0e3e6;top=0;left=0;bottom=0;right=0;pointerEvents=1;fontSize=16;" parent="269" vertex="1">
                    <mxGeometry x="207" width="104" height="31" as="geometry">
                        <mxRectangle width="104" height="31" as="alternateBounds"/>
                    </mxGeometry>
                </mxCell>
                <mxCell id="273" value="" style="shape=tableRow;horizontal=0;startSize=0;swimlaneHead=0;swimlaneBody=0;strokeColor=#0e8088;top=0;left=0;bottom=0;right=0;collapsible=0;dropTarget=0;fillColor=#b0e3e6;points=[[0,0.5],[1,0.5]];portConstraint=eastwest;fontSize=16;" parent="252" vertex="1">
                    <mxGeometry y="181" width="311" height="65" as="geometry"/>
                </mxCell>
                <mxCell id="274" value="DATE" style="shape=partialRectangle;html=1;whiteSpace=wrap;connectable=0;strokeColor=#0e8088;overflow=hidden;fillColor=#b0e3e6;top=0;left=0;bottom=0;right=0;pointerEvents=1;fontSize=16;" parent="273" vertex="1">
                    <mxGeometry width="88" height="65" as="geometry">
                        <mxRectangle width="88" height="65" as="alternateBounds"/>
                    </mxGeometry>
                </mxCell>
                <mxCell id="275" value="&lt;span style=&quot;color: rgb(0, 0, 0);&quot;&gt;published_at&lt;/span&gt;" style="shape=partialRectangle;html=1;whiteSpace=wrap;connectable=0;strokeColor=#0e8088;overflow=hidden;fillColor=#b0e3e6;top=0;left=0;bottom=0;right=0;pointerEvents=1;fontSize=16;" parent="273" vertex="1">
                    <mxGeometry x="88" width="119" height="65" as="geometry">
                        <mxRectangle width="119" height="65" as="alternateBounds"/>
                    </mxGeometry>
                </mxCell>
                <mxCell id="276" value="&lt;span style=&quot;color: rgb(0, 0, 0);&quot;&gt;&lt;font style=&quot;font-size: 12px;&quot;&gt;&lt;b&gt;NOT NULL&lt;/b&gt;&lt;/font&gt;&lt;/span&gt;&lt;div&gt;&lt;span style=&quot;color: rgb(0, 0, 0);&quot;&gt;&lt;font style=&quot;font-size: 12px;&quot;&gt;default, CURRENT DATE&lt;/font&gt;&lt;/span&gt;&lt;/div&gt;" style="shape=partialRectangle;html=1;whiteSpace=wrap;connectable=0;strokeColor=#0e8088;overflow=hidden;fillColor=#b0e3e6;top=0;left=0;bottom=0;right=0;pointerEvents=1;fontSize=16;" parent="273" vertex="1">
                    <mxGeometry x="207" width="104" height="65" as="geometry">
                        <mxRectangle width="104" height="65" as="alternateBounds"/>
                    </mxGeometry>
                </mxCell>
                <mxCell id="277" value="" style="shape=tableRow;horizontal=0;startSize=0;swimlaneHead=0;swimlaneBody=0;strokeColor=#0e8088;top=0;left=0;bottom=0;right=0;collapsible=0;dropTarget=0;fillColor=#b0e3e6;points=[[0,0.5],[1,0.5]];portConstraint=eastwest;fontSize=16;" parent="252" vertex="1">
                    <mxGeometry y="246" width="311" height="33" as="geometry"/>
                </mxCell>
                <mxCell id="278" value="DATE" style="shape=partialRectangle;html=1;whiteSpace=wrap;connectable=0;strokeColor=#0e8088;overflow=hidden;fillColor=#b0e3e6;top=0;left=0;bottom=0;right=0;pointerEvents=1;fontSize=16;" parent="277" vertex="1">
                    <mxGeometry width="88" height="33" as="geometry">
                        <mxRectangle width="88" height="33" as="alternateBounds"/>
                    </mxGeometry>
                </mxCell>
                <mxCell id="279" value="updated_at" style="shape=partialRectangle;html=1;whiteSpace=wrap;connectable=0;strokeColor=#0e8088;overflow=hidden;fillColor=#b0e3e6;top=0;left=0;bottom=0;right=0;pointerEvents=1;fontSize=16;" parent="277" vertex="1">
                    <mxGeometry x="88" width="119" height="33" as="geometry">
                        <mxRectangle width="119" height="33" as="alternateBounds"/>
                    </mxGeometry>
                </mxCell>
                <mxCell id="280" value="&lt;font style=&quot;font-size: 12px;&quot;&gt;&lt;b&gt;NULL&lt;/b&gt;&lt;/font&gt;" style="shape=partialRectangle;html=1;whiteSpace=wrap;connectable=0;strokeColor=#0e8088;overflow=hidden;fillColor=#b0e3e6;top=0;left=0;bottom=0;right=0;pointerEvents=1;fontSize=16;" parent="277" vertex="1">
                    <mxGeometry x="207" width="104" height="33" as="geometry">
                        <mxRectangle width="104" height="33" as="alternateBounds"/>
                    </mxGeometry>
                </mxCell>
                <mxCell id="290" value="BOOK_IN_LIST" style="shape=table;startSize=30;container=1;collapsible=0;childLayout=tableLayout;strokeColor=#9673a6;fontSize=16;fillColor=#e1d5e7;strokeWidth=2;perimeterSpacing=1;shadow=1;swimlaneFillColor=default;" parent="1" vertex="1">
                    <mxGeometry x="1756" y="831" width="310" height="150" as="geometry"/>
                </mxCell>
                <mxCell id="291" value="" style="shape=tableRow;horizontal=0;startSize=0;swimlaneHead=0;swimlaneBody=0;strokeColor=inherit;top=0;left=0;bottom=0;right=0;collapsible=0;dropTarget=0;fillColor=none;points=[[0,0.5],[1,0.5]];portConstraint=eastwest;fontSize=16;" parent="290" vertex="1">
                    <mxGeometry y="30" width="310" height="40" as="geometry"/>
                </mxCell>
                <mxCell id="292" value="INTEGER" style="shape=partialRectangle;html=1;whiteSpace=wrap;connectable=0;strokeColor=inherit;overflow=hidden;fillColor=none;top=0;left=0;bottom=0;right=0;pointerEvents=1;fontSize=16;" parent="291" vertex="1">
                    <mxGeometry width="99" height="40" as="geometry">
                        <mxRectangle width="99" height="40" as="alternateBounds"/>
                    </mxGeometry>
                </mxCell>
                <mxCell id="293" value="id_book_in_list" style="shape=partialRectangle;html=1;whiteSpace=wrap;connectable=0;strokeColor=inherit;overflow=hidden;fillColor=none;top=0;left=0;bottom=0;right=0;pointerEvents=1;fontSize=16;" parent="291" vertex="1">
                    <mxGeometry x="99" width="148" height="40" as="geometry">
                        <mxRectangle width="148" height="40" as="alternateBounds"/>
                    </mxGeometry>
                </mxCell>
                <mxCell id="294" value="PK" style="shape=partialRectangle;html=1;whiteSpace=wrap;connectable=0;strokeColor=inherit;overflow=hidden;fillColor=none;top=0;left=0;bottom=0;right=0;pointerEvents=1;fontSize=16;" parent="291" vertex="1">
                    <mxGeometry x="247" width="63" height="40" as="geometry">
                        <mxRectangle width="63" height="40" as="alternateBounds"/>
                    </mxGeometry>
                </mxCell>
                <mxCell id="295" value="" style="shape=tableRow;horizontal=0;startSize=0;swimlaneHead=0;swimlaneBody=0;strokeColor=inherit;top=0;left=0;bottom=0;right=0;collapsible=0;dropTarget=0;fillColor=none;points=[[0,0.5],[1,0.5]];portConstraint=eastwest;fontSize=16;" parent="290" vertex="1">
                    <mxGeometry y="70" width="310" height="40" as="geometry"/>
                </mxCell>
                <mxCell id="296" value="INTEGER" style="shape=partialRectangle;html=1;whiteSpace=wrap;connectable=0;strokeColor=inherit;overflow=hidden;fillColor=none;top=0;left=0;bottom=0;right=0;pointerEvents=1;fontSize=16;" parent="295" vertex="1">
                    <mxGeometry width="99" height="40" as="geometry">
                        <mxRectangle width="99" height="40" as="alternateBounds"/>
                    </mxGeometry>
                </mxCell>
                <mxCell id="297" value="id_reading_book" style="shape=partialRectangle;html=1;whiteSpace=wrap;connectable=0;strokeColor=inherit;overflow=hidden;fillColor=none;top=0;left=0;bottom=0;right=0;pointerEvents=1;fontSize=16;" parent="295" vertex="1">
                    <mxGeometry x="99" width="148" height="40" as="geometry">
                        <mxRectangle width="148" height="40" as="alternateBounds"/>
                    </mxGeometry>
                </mxCell>
                <mxCell id="298" value="FK" style="shape=partialRectangle;html=1;whiteSpace=wrap;connectable=0;strokeColor=inherit;overflow=hidden;fillColor=none;top=0;left=0;bottom=0;right=0;pointerEvents=1;fontSize=16;" parent="295" vertex="1">
                    <mxGeometry x="247" width="63" height="40" as="geometry">
                        <mxRectangle width="63" height="40" as="alternateBounds"/>
                    </mxGeometry>
                </mxCell>
                <mxCell id="299" value="" style="shape=tableRow;horizontal=0;startSize=0;swimlaneHead=0;swimlaneBody=0;strokeColor=inherit;top=0;left=0;bottom=0;right=0;collapsible=0;dropTarget=0;fillColor=none;points=[[0,0.5],[1,0.5]];portConstraint=eastwest;fontSize=16;" parent="290" vertex="1">
                    <mxGeometry y="110" width="310" height="40" as="geometry"/>
                </mxCell>
                <mxCell id="300" value="INTEGER" style="shape=partialRectangle;html=1;whiteSpace=wrap;connectable=0;strokeColor=inherit;overflow=hidden;fillColor=none;top=0;left=0;bottom=0;right=0;pointerEvents=1;fontSize=16;" parent="299" vertex="1">
                    <mxGeometry width="99" height="40" as="geometry">
                        <mxRectangle width="99" height="40" as="alternateBounds"/>
                    </mxGeometry>
                </mxCell>
                <mxCell id="301" value="id_book" style="shape=partialRectangle;html=1;whiteSpace=wrap;connectable=0;strokeColor=inherit;overflow=hidden;fillColor=none;top=0;left=0;bottom=0;right=0;pointerEvents=1;fontSize=16;" parent="299" vertex="1">
                    <mxGeometry x="99" width="148" height="40" as="geometry">
                        <mxRectangle width="148" height="40" as="alternateBounds"/>
                    </mxGeometry>
                </mxCell>
                <mxCell id="302" value="FK" style="shape=partialRectangle;html=1;whiteSpace=wrap;connectable=0;strokeColor=inherit;overflow=hidden;fillColor=none;top=0;left=0;bottom=0;right=0;pointerEvents=1;fontSize=16;" parent="299" vertex="1">
                    <mxGeometry x="247" width="63" height="40" as="geometry">
                        <mxRectangle width="63" height="40" as="alternateBounds"/>
                    </mxGeometry>
                </mxCell>
                <mxCell id="307" value="BOOK_LIBRARY" style="shape=table;startSize=30;container=1;collapsible=0;childLayout=tableLayout;strokeColor=#d6b656;fontSize=16;fillColor=#fff2cc;strokeWidth=2;perimeterSpacing=1;shadow=1;swimlaneFillColor=default;" parent="1" vertex="1">
                    <mxGeometry x="1300" y="831" width="370" height="197.72" as="geometry"/>
                </mxCell>
                <mxCell id="308" value="" style="shape=tableRow;horizontal=0;startSize=0;swimlaneHead=0;swimlaneBody=0;strokeColor=inherit;top=0;left=0;bottom=0;right=0;collapsible=0;dropTarget=0;fillColor=none;points=[[0,0.5],[1,0.5]];portConstraint=eastwest;fontSize=16;" parent="307" vertex="1">
                    <mxGeometry y="30" width="370" height="33" as="geometry"/>
                </mxCell>
                <mxCell id="309" value="INTEGER" style="shape=partialRectangle;html=1;whiteSpace=wrap;connectable=0;strokeColor=inherit;overflow=hidden;fillColor=none;top=0;left=0;bottom=0;right=0;pointerEvents=1;fontSize=16;" parent="308" vertex="1">
                    <mxGeometry width="119" height="33" as="geometry">
                        <mxRectangle width="119" height="33" as="alternateBounds"/>
                    </mxGeometry>
                </mxCell>
                <mxCell id="310" value="id_book_&lt;span style=&quot;color: rgb(0, 0, 0);&quot;&gt;library&lt;/span&gt;" style="shape=partialRectangle;html=1;whiteSpace=wrap;connectable=0;strokeColor=inherit;overflow=hidden;fillColor=none;top=0;left=0;bottom=0;right=0;pointerEvents=1;fontSize=16;" parent="308" vertex="1">
                    <mxGeometry x="119" width="147" height="33" as="geometry">
                        <mxRectangle width="147" height="33" as="alternateBounds"/>
                    </mxGeometry>
                </mxCell>
                <mxCell id="311" value="PK" style="shape=partialRectangle;html=1;whiteSpace=wrap;connectable=0;strokeColor=inherit;overflow=hidden;fillColor=none;top=0;left=0;bottom=0;right=0;pointerEvents=1;fontSize=16;" parent="308" vertex="1">
                    <mxGeometry x="266" width="104" height="33" as="geometry">
                        <mxRectangle width="104" height="33" as="alternateBounds"/>
                    </mxGeometry>
                </mxCell>
                <mxCell id="312" value="" style="shape=tableRow;horizontal=0;startSize=0;swimlaneHead=0;swimlaneBody=0;strokeColor=inherit;top=0;left=0;bottom=0;right=0;collapsible=0;dropTarget=0;fillColor=none;points=[[0,0.5],[1,0.5]];portConstraint=eastwest;fontSize=16;" parent="307" vertex="1">
                    <mxGeometry y="63" width="370" height="33" as="geometry"/>
                </mxCell>
                <mxCell id="313" value="INTEGER" style="shape=partialRectangle;html=1;whiteSpace=wrap;connectable=0;strokeColor=inherit;overflow=hidden;fillColor=none;top=0;left=0;bottom=0;right=0;pointerEvents=1;fontSize=16;" parent="312" vertex="1">
                    <mxGeometry width="119" height="33" as="geometry">
                        <mxRectangle width="119" height="33" as="alternateBounds"/>
                    </mxGeometry>
                </mxCell>
                <mxCell id="314" value="id_&lt;span style=&quot;color: rgb(0, 0, 0);&quot;&gt;library&lt;/span&gt;" style="shape=partialRectangle;html=1;whiteSpace=wrap;connectable=0;strokeColor=inherit;overflow=hidden;fillColor=none;top=0;left=0;bottom=0;right=0;pointerEvents=1;fontSize=16;" parent="312" vertex="1">
                    <mxGeometry x="119" width="147" height="33" as="geometry">
                        <mxRectangle width="147" height="33" as="alternateBounds"/>
                    </mxGeometry>
                </mxCell>
                <mxCell id="315" value="FK" style="shape=partialRectangle;html=1;whiteSpace=wrap;connectable=0;strokeColor=inherit;overflow=hidden;fillColor=none;top=0;left=0;bottom=0;right=0;pointerEvents=1;fontSize=16;" parent="312" vertex="1">
                    <mxGeometry x="266" width="104" height="33" as="geometry">
                        <mxRectangle width="104" height="33" as="alternateBounds"/>
                    </mxGeometry>
                </mxCell>
                <mxCell id="316" value="" style="shape=tableRow;horizontal=0;startSize=0;swimlaneHead=0;swimlaneBody=0;strokeColor=inherit;top=0;left=0;bottom=0;right=0;collapsible=0;dropTarget=0;fillColor=none;points=[[0,0.5],[1,0.5]];portConstraint=eastwest;fontSize=16;" parent="307" vertex="1">
                    <mxGeometry y="96" width="370" height="35" as="geometry"/>
                </mxCell>
                <mxCell id="317" value="INTEGER" style="shape=partialRectangle;html=1;whiteSpace=wrap;connectable=0;strokeColor=inherit;overflow=hidden;fillColor=none;top=0;left=0;bottom=0;right=0;pointerEvents=1;fontSize=16;" parent="316" vertex="1">
                    <mxGeometry width="119" height="35" as="geometry">
                        <mxRectangle width="119" height="35" as="alternateBounds"/>
                    </mxGeometry>
                </mxCell>
                <mxCell id="318" value="id_book" style="shape=partialRectangle;html=1;whiteSpace=wrap;connectable=0;strokeColor=inherit;overflow=hidden;fillColor=none;top=0;left=0;bottom=0;right=0;pointerEvents=1;fontSize=16;" parent="316" vertex="1">
                    <mxGeometry x="119" width="147" height="35" as="geometry">
                        <mxRectangle width="147" height="35" as="alternateBounds"/>
                    </mxGeometry>
                </mxCell>
                <mxCell id="319" value="FK" style="shape=partialRectangle;html=1;whiteSpace=wrap;connectable=0;strokeColor=inherit;overflow=hidden;fillColor=none;top=0;left=0;bottom=0;right=0;pointerEvents=1;fontSize=16;" parent="316" vertex="1">
                    <mxGeometry x="266" width="104" height="35" as="geometry">
                        <mxRectangle width="104" height="35" as="alternateBounds"/>
                    </mxGeometry>
                </mxCell>
                <mxCell id="320" value="" style="shape=tableRow;horizontal=0;startSize=0;swimlaneHead=0;swimlaneBody=0;strokeColor=inherit;top=0;left=0;bottom=0;right=0;collapsible=0;dropTarget=0;fillColor=none;points=[[0,0.5],[1,0.5]];portConstraint=eastwest;fontSize=16;" parent="307" vertex="1">
                    <mxGeometry y="131" width="370" height="67" as="geometry"/>
                </mxCell>
                <mxCell id="321" value="DATE" style="shape=partialRectangle;html=1;whiteSpace=wrap;connectable=0;strokeColor=inherit;overflow=hidden;fillColor=none;top=0;left=0;bottom=0;right=0;pointerEvents=1;fontSize=16;" parent="320" vertex="1">
                    <mxGeometry width="119" height="67" as="geometry">
                        <mxRectangle width="119" height="67" as="alternateBounds"/>
                    </mxGeometry>
                </mxCell>
                <mxCell id="322" value="created_at" style="shape=partialRectangle;html=1;whiteSpace=wrap;connectable=0;strokeColor=inherit;overflow=hidden;fillColor=none;top=0;left=0;bottom=0;right=0;pointerEvents=1;fontSize=16;" parent="320" vertex="1">
                    <mxGeometry x="119" width="147" height="67" as="geometry">
                        <mxRectangle width="147" height="67" as="alternateBounds"/>
                    </mxGeometry>
                </mxCell>
                <mxCell id="323" value="&lt;span style=&quot;color: rgb(0, 0, 0);&quot;&gt;&lt;font style=&quot;font-size: 12px;&quot;&gt;&lt;b&gt;NOT NULL&lt;/b&gt;&lt;/font&gt;&lt;/span&gt;&lt;div&gt;&lt;span style=&quot;color: rgb(0, 0, 0);&quot;&gt;&lt;font style=&quot;font-size: 12px;&quot;&gt;default, CURRENT DATE&lt;/font&gt;&lt;/span&gt;&lt;/div&gt;" style="shape=partialRectangle;html=1;whiteSpace=wrap;connectable=0;strokeColor=inherit;overflow=hidden;fillColor=none;top=0;left=0;bottom=0;right=0;pointerEvents=1;fontSize=16;" parent="320" vertex="1">
                    <mxGeometry x="266" width="104" height="67" as="geometry">
                        <mxRectangle width="104" height="67" as="alternateBounds"/>
                    </mxGeometry>
                </mxCell>
                <mxCell id="343" value="Table" style="shape=table;startSize=30;container=1;collapsible=0;childLayout=tableLayout;strokeColor=#d6b656;fontSize=16;fillColor=#fff2cc;" parent="1" vertex="1">
                    <mxGeometry x="120" y="767" width="180" height="129.76470588235293" as="geometry"/>
                </mxCell>
                <mxCell id="344" value="" style="shape=tableRow;horizontal=0;startSize=0;swimlaneHead=0;swimlaneBody=0;strokeColor=#d6b656;top=0;left=0;bottom=0;right=0;collapsible=0;dropTarget=0;fillColor=#fff2cc;points=[[0,0.5],[1,0.5]];portConstraint=eastwest;fontSize=16;" parent="343" vertex="1">
                    <mxGeometry y="30" width="180" height="20" as="geometry"/>
                </mxCell>
                <mxCell id="345" value="" style="shape=partialRectangle;html=1;whiteSpace=wrap;connectable=0;strokeColor=#d6b656;overflow=hidden;fillColor=#fff2cc;top=0;left=0;bottom=0;right=0;pointerEvents=1;fontSize=16;" parent="344" vertex="1">
                    <mxGeometry width="60" height="20" as="geometry">
                        <mxRectangle width="60" height="20" as="alternateBounds"/>
                    </mxGeometry>
                </mxCell>
                <mxCell id="346" value="" style="shape=partialRectangle;html=1;whiteSpace=wrap;connectable=0;strokeColor=#d6b656;overflow=hidden;fillColor=#fff2cc;top=0;left=0;bottom=0;right=0;pointerEvents=1;fontSize=16;" parent="344" vertex="1">
                    <mxGeometry x="60" width="60" height="20" as="geometry">
                        <mxRectangle width="60" height="20" as="alternateBounds"/>
                    </mxGeometry>
                </mxCell>
                <mxCell id="347" value="" style="shape=partialRectangle;html=1;whiteSpace=wrap;connectable=0;strokeColor=#d6b656;overflow=hidden;fillColor=#fff2cc;top=0;left=0;bottom=0;right=0;pointerEvents=1;fontSize=16;" parent="344" vertex="1">
                    <mxGeometry x="120" width="60" height="20" as="geometry">
                        <mxRectangle width="60" height="20" as="alternateBounds"/>
                    </mxGeometry>
                </mxCell>
                <mxCell id="348" value="" style="shape=tableRow;horizontal=0;startSize=0;swimlaneHead=0;swimlaneBody=0;strokeColor=#d6b656;top=0;left=0;bottom=0;right=0;collapsible=0;dropTarget=0;fillColor=#fff2cc;points=[[0,0.5],[1,0.5]];portConstraint=eastwest;fontSize=16;" parent="343" vertex="1">
                    <mxGeometry y="50" width="180" height="40" as="geometry"/>
                </mxCell>
                <mxCell id="349" value="" style="shape=partialRectangle;html=1;whiteSpace=wrap;connectable=0;strokeColor=#d6b656;overflow=hidden;fillColor=#fff2cc;top=0;left=0;bottom=0;right=0;pointerEvents=1;fontSize=16;" parent="348" vertex="1">
                    <mxGeometry width="60" height="40" as="geometry">
                        <mxRectangle width="60" height="40" as="alternateBounds"/>
                    </mxGeometry>
                </mxCell>
                <mxCell id="350" value="" style="shape=partialRectangle;html=1;whiteSpace=wrap;connectable=0;strokeColor=#d6b656;overflow=hidden;fillColor=#fff2cc;top=0;left=0;bottom=0;right=0;pointerEvents=1;fontSize=16;" parent="348" vertex="1">
                    <mxGeometry x="60" width="60" height="40" as="geometry">
                        <mxRectangle width="60" height="40" as="alternateBounds"/>
                    </mxGeometry>
                </mxCell>
                <mxCell id="351" value="" style="shape=partialRectangle;html=1;whiteSpace=wrap;connectable=0;strokeColor=#d6b656;overflow=hidden;fillColor=#fff2cc;top=0;left=0;bottom=0;right=0;pointerEvents=1;fontSize=16;" parent="348" vertex="1">
                    <mxGeometry x="120" width="60" height="40" as="geometry">
                        <mxRectangle width="60" height="40" as="alternateBounds"/>
                    </mxGeometry>
                </mxCell>
                <mxCell id="352" value="" style="shape=tableRow;horizontal=0;startSize=0;swimlaneHead=0;swimlaneBody=0;strokeColor=#d6b656;top=0;left=0;bottom=0;right=0;collapsible=0;dropTarget=0;fillColor=#fff2cc;points=[[0,0.5],[1,0.5]];portConstraint=eastwest;fontSize=16;" parent="343" vertex="1">
                    <mxGeometry y="90" width="180" height="40" as="geometry"/>
                </mxCell>
                <mxCell id="353" value="" style="shape=partialRectangle;html=1;whiteSpace=wrap;connectable=0;strokeColor=#d6b656;overflow=hidden;fillColor=#fff2cc;top=0;left=0;bottom=0;right=0;pointerEvents=1;fontSize=16;" parent="352" vertex="1">
                    <mxGeometry width="60" height="40" as="geometry">
                        <mxRectangle width="60" height="40" as="alternateBounds"/>
                    </mxGeometry>
                </mxCell>
                <mxCell id="354" value="" style="shape=partialRectangle;html=1;whiteSpace=wrap;connectable=0;strokeColor=#d6b656;overflow=hidden;fillColor=#fff2cc;top=0;left=0;bottom=0;right=0;pointerEvents=1;fontSize=16;" parent="352" vertex="1">
                    <mxGeometry x="60" width="60" height="40" as="geometry">
                        <mxRectangle width="60" height="40" as="alternateBounds"/>
                    </mxGeometry>
                </mxCell>
                <mxCell id="355" value="" style="shape=partialRectangle;html=1;whiteSpace=wrap;connectable=0;strokeColor=#d6b656;overflow=hidden;fillColor=#fff2cc;top=0;left=0;bottom=0;right=0;pointerEvents=1;fontSize=16;" parent="352" vertex="1">
                    <mxGeometry x="120" width="60" height="40" as="geometry">
                        <mxRectangle width="60" height="40" as="alternateBounds"/>
                    </mxGeometry>
                </mxCell>
                <mxCell id="356" value="Link_Table" style="shape=table;startSize=30;container=1;collapsible=0;childLayout=tableLayout;strokeColor=#d6b656;fontSize=16;fillColor=#fff2cc;" parent="1" vertex="1">
                    <mxGeometry x="120" y="942.5" width="180" height="150" as="geometry"/>
                </mxCell>
                <mxCell id="357" value="" style="shape=tableRow;horizontal=0;startSize=0;swimlaneHead=0;swimlaneBody=0;strokeColor=inherit;top=0;left=0;bottom=0;right=0;collapsible=0;dropTarget=0;fillColor=none;points=[[0,0.5],[1,0.5]];portConstraint=eastwest;fontSize=16;" parent="356" vertex="1">
                    <mxGeometry y="30" width="180" height="40" as="geometry"/>
                </mxCell>
                <mxCell id="358" value="" style="shape=partialRectangle;html=1;whiteSpace=wrap;connectable=0;strokeColor=inherit;overflow=hidden;fillColor=none;top=0;left=0;bottom=0;right=0;pointerEvents=1;fontSize=16;" parent="357" vertex="1">
                    <mxGeometry width="60" height="40" as="geometry">
                        <mxRectangle width="60" height="40" as="alternateBounds"/>
                    </mxGeometry>
                </mxCell>
                <mxCell id="359" value="" style="shape=partialRectangle;html=1;whiteSpace=wrap;connectable=0;strokeColor=inherit;overflow=hidden;fillColor=none;top=0;left=0;bottom=0;right=0;pointerEvents=1;fontSize=16;" parent="357" vertex="1">
                    <mxGeometry x="60" width="60" height="40" as="geometry">
                        <mxRectangle width="60" height="40" as="alternateBounds"/>
                    </mxGeometry>
                </mxCell>
                <mxCell id="360" value="" style="shape=partialRectangle;html=1;whiteSpace=wrap;connectable=0;strokeColor=inherit;overflow=hidden;fillColor=none;top=0;left=0;bottom=0;right=0;pointerEvents=1;fontSize=16;" parent="357" vertex="1">
                    <mxGeometry x="120" width="60" height="40" as="geometry">
                        <mxRectangle width="60" height="40" as="alternateBounds"/>
                    </mxGeometry>
                </mxCell>
                <mxCell id="361" value="" style="shape=tableRow;horizontal=0;startSize=0;swimlaneHead=0;swimlaneBody=0;strokeColor=inherit;top=0;left=0;bottom=0;right=0;collapsible=0;dropTarget=0;fillColor=none;points=[[0,0.5],[1,0.5]];portConstraint=eastwest;fontSize=16;" parent="356" vertex="1">
                    <mxGeometry y="70" width="180" height="40" as="geometry"/>
                </mxCell>
                <mxCell id="362" value="" style="shape=partialRectangle;html=1;whiteSpace=wrap;connectable=0;strokeColor=inherit;overflow=hidden;fillColor=none;top=0;left=0;bottom=0;right=0;pointerEvents=1;fontSize=16;" parent="361" vertex="1">
                    <mxGeometry width="60" height="40" as="geometry">
                        <mxRectangle width="60" height="40" as="alternateBounds"/>
                    </mxGeometry>
                </mxCell>
                <mxCell id="363" value="" style="shape=partialRectangle;html=1;whiteSpace=wrap;connectable=0;strokeColor=inherit;overflow=hidden;fillColor=none;top=0;left=0;bottom=0;right=0;pointerEvents=1;fontSize=16;" parent="361" vertex="1">
                    <mxGeometry x="60" width="60" height="40" as="geometry">
                        <mxRectangle width="60" height="40" as="alternateBounds"/>
                    </mxGeometry>
                </mxCell>
                <mxCell id="364" value="" style="shape=partialRectangle;html=1;whiteSpace=wrap;connectable=0;strokeColor=inherit;overflow=hidden;fillColor=none;top=0;left=0;bottom=0;right=0;pointerEvents=1;fontSize=16;" parent="361" vertex="1">
                    <mxGeometry x="120" width="60" height="40" as="geometry">
                        <mxRectangle width="60" height="40" as="alternateBounds"/>
                    </mxGeometry>
                </mxCell>
                <mxCell id="365" value="" style="shape=tableRow;horizontal=0;startSize=0;swimlaneHead=0;swimlaneBody=0;strokeColor=inherit;top=0;left=0;bottom=0;right=0;collapsible=0;dropTarget=0;fillColor=none;points=[[0,0.5],[1,0.5]];portConstraint=eastwest;fontSize=16;" parent="356" vertex="1">
                    <mxGeometry y="110" width="180" height="40" as="geometry"/>
                </mxCell>
                <mxCell id="366" value="" style="shape=partialRectangle;html=1;whiteSpace=wrap;connectable=0;strokeColor=inherit;overflow=hidden;fillColor=none;top=0;left=0;bottom=0;right=0;pointerEvents=1;fontSize=16;" parent="365" vertex="1">
                    <mxGeometry width="60" height="40" as="geometry">
                        <mxRectangle width="60" height="40" as="alternateBounds"/>
                    </mxGeometry>
                </mxCell>
                <mxCell id="367" value="" style="shape=partialRectangle;html=1;whiteSpace=wrap;connectable=0;strokeColor=inherit;overflow=hidden;fillColor=none;top=0;left=0;bottom=0;right=0;pointerEvents=1;fontSize=16;" parent="365" vertex="1">
                    <mxGeometry x="60" width="60" height="40" as="geometry">
                        <mxRectangle width="60" height="40" as="alternateBounds"/>
                    </mxGeometry>
                </mxCell>
                <mxCell id="368" value="" style="shape=partialRectangle;html=1;whiteSpace=wrap;connectable=0;strokeColor=inherit;overflow=hidden;fillColor=none;top=0;left=0;bottom=0;right=0;pointerEvents=1;fontSize=16;" parent="365" vertex="1">
                    <mxGeometry x="120" width="60" height="40" as="geometry">
                        <mxRectangle width="60" height="40" as="alternateBounds"/>
                    </mxGeometry>
                </mxCell>
                <mxCell id="370" value="&lt;font style=&quot;font-size: 36px;&quot;&gt;MPD blablabook&lt;/font&gt;" style="rounded=1;whiteSpace=wrap;html=1;fillColor=#dae8fc;gradientColor=#7ea6e0;strokeColor=#6c8ebf;shadow=1;" parent="1" vertex="1">
                    <mxGeometry x="1240" y="120" width="910" height="70" as="geometry"/>
                </mxCell>
                <mxCell id="371" value="GENRE" style="shape=table;startSize=30;container=1;collapsible=0;childLayout=tableLayout;strokeColor=#10739e;fontSize=16;fillColor=#b1ddf0;strokeWidth=2;perimeterSpacing=1;shadow=1;swimlaneFillColor=default;" parent="1" vertex="1">
                    <mxGeometry x="2330" y="1370" width="240" height="85" as="geometry"/>
                </mxCell>
                <mxCell id="372" value="" style="shape=tableRow;horizontal=0;startSize=0;swimlaneHead=0;swimlaneBody=0;strokeColor=#10739e;top=0;left=0;bottom=0;right=0;collapsible=0;dropTarget=0;fillColor=#b1ddf0;points=[[0,0.5],[1,0.5]];portConstraint=eastwest;fontSize=16;" parent="371" vertex="1">
                    <mxGeometry y="30" width="240" height="28" as="geometry"/>
                </mxCell>
                <mxCell id="373" value="INTEGER" style="shape=partialRectangle;html=1;whiteSpace=wrap;connectable=0;strokeColor=#10739e;overflow=hidden;fillColor=#b1ddf0;top=0;left=0;bottom=0;right=0;pointerEvents=1;fontSize=16;" parent="372" vertex="1">
                    <mxGeometry width="78" height="28" as="geometry">
                        <mxRectangle width="78" height="28" as="alternateBounds"/>
                    </mxGeometry>
                </mxCell>
                <mxCell id="374" value="id_genre" style="shape=partialRectangle;html=1;whiteSpace=wrap;connectable=0;strokeColor=#10739e;overflow=hidden;fillColor=#b1ddf0;top=0;left=0;bottom=0;right=0;pointerEvents=1;fontSize=16;" parent="372" vertex="1">
                    <mxGeometry x="78" width="113" height="28" as="geometry">
                        <mxRectangle width="113" height="28" as="alternateBounds"/>
                    </mxGeometry>
                </mxCell>
                <mxCell id="375" value="PK" style="shape=partialRectangle;html=1;whiteSpace=wrap;connectable=0;strokeColor=#10739e;overflow=hidden;fillColor=#b1ddf0;top=0;left=0;bottom=0;right=0;pointerEvents=1;fontSize=16;" parent="372" vertex="1">
                    <mxGeometry x="191" width="49" height="28" as="geometry">
                        <mxRectangle width="49" height="28" as="alternateBounds"/>
                    </mxGeometry>
                </mxCell>
                <mxCell id="376" value="" style="shape=tableRow;horizontal=0;startSize=0;swimlaneHead=0;swimlaneBody=0;strokeColor=#10739e;top=0;left=0;bottom=0;right=0;collapsible=0;dropTarget=0;fillColor=#b1ddf0;points=[[0,0.5],[1,0.5]];portConstraint=eastwest;fontSize=16;" parent="371" vertex="1">
                    <mxGeometry y="58" width="240" height="27" as="geometry"/>
                </mxCell>
                <mxCell id="377" value="TEXT" style="shape=partialRectangle;html=1;whiteSpace=wrap;connectable=0;strokeColor=#10739e;overflow=hidden;fillColor=#b1ddf0;top=0;left=0;bottom=0;right=0;pointerEvents=1;fontSize=16;" parent="376" vertex="1">
                    <mxGeometry width="78" height="27" as="geometry">
                        <mxRectangle width="78" height="27" as="alternateBounds"/>
                    </mxGeometry>
                </mxCell>
                <mxCell id="378" value="name" style="shape=partialRectangle;html=1;whiteSpace=wrap;connectable=0;strokeColor=#10739e;overflow=hidden;fillColor=#b1ddf0;top=0;left=0;bottom=0;right=0;pointerEvents=1;fontSize=16;" parent="376" vertex="1">
                    <mxGeometry x="78" width="113" height="27" as="geometry">
                        <mxRectangle width="113" height="27" as="alternateBounds"/>
                    </mxGeometry>
                </mxCell>
                <mxCell id="379" value="&lt;font style=&quot;font-size: 12px;&quot;&gt;&lt;b&gt;UK&lt;/b&gt;&lt;/font&gt;" style="shape=partialRectangle;html=1;whiteSpace=wrap;connectable=0;strokeColor=#10739e;overflow=hidden;fillColor=#b1ddf0;top=0;left=0;bottom=0;right=0;pointerEvents=1;fontSize=16;" parent="376" vertex="1">
                    <mxGeometry x="191" width="49" height="27" as="geometry">
                        <mxRectangle width="49" height="27" as="alternateBounds"/>
                    </mxGeometry>
                </mxCell>
                <mxCell id="388" value="AUTHOR" style="shape=table;startSize=30;container=1;collapsible=0;childLayout=tableLayout;strokeColor=#666666;fontSize=16;fillColor=#f5f5f5;strokeWidth=2;perimeterSpacing=3;shadow=1;rounded=0;swimlaneLine=1;fillStyle=auto;fontColor=#333333;" parent="1" vertex="1">
                    <mxGeometry x="1990" y="1370" width="274" height="110" as="geometry"/>
                </mxCell>
                <mxCell id="389" value="" style="shape=tableRow;horizontal=0;startSize=0;swimlaneHead=0;swimlaneBody=0;strokeColor=#666666;top=0;left=0;bottom=0;right=0;collapsible=0;dropTarget=0;fillColor=#f5f5f5;points=[[0,0.5],[1,0.5]];portConstraint=eastwest;fontSize=16;strokeWidth=3;perimeterSpacing=2;shadow=1;fontColor=#333333;" parent="388" vertex="1">
                    <mxGeometry y="30" width="274" height="28" as="geometry"/>
                </mxCell>
                <mxCell id="390" value="INTEGER" style="shape=partialRectangle;html=1;whiteSpace=wrap;connectable=0;strokeColor=#666666;overflow=hidden;fillColor=#f5f5f5;top=0;left=0;bottom=0;right=0;pointerEvents=1;fontSize=16;strokeWidth=3;perimeterSpacing=2;shadow=1;fontColor=#333333;" parent="389" vertex="1">
                    <mxGeometry width="80" height="28" as="geometry">
                        <mxRectangle width="80" height="28" as="alternateBounds"/>
                    </mxGeometry>
                </mxCell>
                <mxCell id="391" value="id_author" style="shape=partialRectangle;html=1;whiteSpace=wrap;connectable=0;strokeColor=#666666;overflow=hidden;fillColor=#f5f5f5;top=0;left=0;bottom=0;right=0;pointerEvents=1;fontSize=16;strokeWidth=3;perimeterSpacing=2;shadow=1;fontColor=#333333;" parent="389" vertex="1">
                    <mxGeometry x="80" width="105" height="28" as="geometry">
                        <mxRectangle width="105" height="28" as="alternateBounds"/>
                    </mxGeometry>
                </mxCell>
                <mxCell id="392" value="PK" style="shape=partialRectangle;html=1;whiteSpace=wrap;connectable=0;strokeColor=#666666;overflow=hidden;fillColor=#f5f5f5;top=0;left=0;bottom=0;right=0;pointerEvents=1;fontSize=16;strokeWidth=3;perimeterSpacing=2;shadow=1;fontColor=#333333;" parent="389" vertex="1">
                    <mxGeometry x="185" width="89" height="28" as="geometry">
                        <mxRectangle width="89" height="28" as="alternateBounds"/>
                    </mxGeometry>
                </mxCell>
                <mxCell id="393" value="" style="shape=tableRow;horizontal=0;startSize=0;swimlaneHead=0;swimlaneBody=0;strokeColor=#666666;top=0;left=0;bottom=0;right=0;collapsible=0;dropTarget=0;fillColor=#f5f5f5;points=[[0,0.5],[1,0.5]];portConstraint=eastwest;fontSize=16;strokeWidth=3;perimeterSpacing=2;shadow=1;fontColor=#333333;" parent="388" vertex="1">
                    <mxGeometry y="58" width="274" height="27" as="geometry"/>
                </mxCell>
                <mxCell id="394" value="TEXT" style="shape=partialRectangle;html=1;whiteSpace=wrap;connectable=0;strokeColor=#666666;overflow=hidden;fillColor=#f5f5f5;top=0;left=0;bottom=0;right=0;pointerEvents=1;fontSize=16;strokeWidth=3;perimeterSpacing=2;shadow=1;fontColor=#333333;" parent="393" vertex="1">
                    <mxGeometry width="80" height="27" as="geometry">
                        <mxRectangle width="80" height="27" as="alternateBounds"/>
                    </mxGeometry>
                </mxCell>
                <mxCell id="395" value="firstname" style="shape=partialRectangle;html=1;whiteSpace=wrap;connectable=0;strokeColor=#666666;overflow=hidden;fillColor=#f5f5f5;top=0;left=0;bottom=0;right=0;pointerEvents=1;fontSize=16;strokeWidth=3;perimeterSpacing=2;shadow=1;fontColor=#333333;" parent="393" vertex="1">
                    <mxGeometry x="80" width="105" height="27" as="geometry">
                        <mxRectangle width="105" height="27" as="alternateBounds"/>
                    </mxGeometry>
                </mxCell>
                <mxCell id="396" value="&lt;font style=&quot;font-size: 12px;&quot;&gt;&lt;b&gt;NULL&lt;/b&gt;&lt;/font&gt;" style="shape=partialRectangle;html=1;whiteSpace=wrap;connectable=0;strokeColor=#666666;overflow=hidden;fillColor=#f5f5f5;top=0;left=0;bottom=0;right=0;pointerEvents=1;fontSize=16;strokeWidth=3;perimeterSpacing=2;shadow=1;fontColor=#333333;" parent="393" vertex="1">
                    <mxGeometry x="185" width="89" height="27" as="geometry">
                        <mxRectangle width="89" height="27" as="alternateBounds"/>
                    </mxGeometry>
                </mxCell>
                <mxCell id="397" value="" style="shape=tableRow;horizontal=0;startSize=0;swimlaneHead=0;swimlaneBody=0;strokeColor=#666666;top=0;left=0;bottom=0;right=0;collapsible=0;dropTarget=0;fillColor=#f5f5f5;points=[[0,0.5],[1,0.5]];portConstraint=eastwest;fontSize=16;strokeWidth=3;perimeterSpacing=2;shadow=1;fontColor=#333333;" parent="388" vertex="1">
                    <mxGeometry y="85" width="274" height="25" as="geometry"/>
                </mxCell>
                <mxCell id="398" value="TEXT" style="shape=partialRectangle;html=1;whiteSpace=wrap;connectable=0;strokeColor=#666666;overflow=hidden;fillColor=#f5f5f5;top=0;left=0;bottom=0;right=0;pointerEvents=1;fontSize=16;strokeWidth=3;perimeterSpacing=2;shadow=1;fontColor=#333333;" parent="397" vertex="1">
                    <mxGeometry width="80" height="25" as="geometry">
                        <mxRectangle width="80" height="25" as="alternateBounds"/>
                    </mxGeometry>
                </mxCell>
                <mxCell id="399" value="lastname" style="shape=partialRectangle;html=1;whiteSpace=wrap;connectable=0;strokeColor=#666666;overflow=hidden;fillColor=#f5f5f5;top=0;left=0;bottom=0;right=0;pointerEvents=1;fontSize=16;strokeWidth=3;perimeterSpacing=2;shadow=1;fontColor=#333333;" parent="397" vertex="1">
                    <mxGeometry x="80" width="105" height="25" as="geometry">
                        <mxRectangle width="105" height="25" as="alternateBounds"/>
                    </mxGeometry>
                </mxCell>
                <mxCell id="400" value="&lt;font style=&quot;font-size: 12px;&quot;&gt;&lt;b&gt;NOT NULL&lt;/b&gt;&lt;/font&gt;" style="shape=partialRectangle;html=1;whiteSpace=wrap;connectable=0;strokeColor=#666666;overflow=hidden;fillColor=#f5f5f5;top=0;left=0;bottom=0;right=0;pointerEvents=1;fontSize=16;strokeWidth=3;perimeterSpacing=2;shadow=1;fontColor=#333333;" parent="397" vertex="1">
                    <mxGeometry x="185" width="89" height="25" as="geometry">
                        <mxRectangle width="89" height="25" as="alternateBounds"/>
                    </mxGeometry>
                </mxCell>
                <mxCell id="405" value="BOOK_GENRE" style="shape=table;startSize=30;container=1;collapsible=0;childLayout=tableLayout;strokeColor=#9673a6;fontSize=16;fillColor=#e1d5e7;strokeWidth=2;perimeterSpacing=1;shadow=1;swimlaneFillColor=default;" parent="1" vertex="1">
                    <mxGeometry x="2330" y="1130" width="240" height="150" as="geometry"/>
                </mxCell>
                <mxCell id="406" value="" style="shape=tableRow;horizontal=0;startSize=0;swimlaneHead=0;swimlaneBody=0;strokeColor=inherit;top=0;left=0;bottom=0;right=0;collapsible=0;dropTarget=0;fillColor=none;points=[[0,0.5],[1,0.5]];portConstraint=eastwest;fontSize=16;" parent="405" vertex="1">
                    <mxGeometry y="30" width="240" height="40" as="geometry"/>
                </mxCell>
                <mxCell id="407" value="INTEGER" style="shape=partialRectangle;html=1;whiteSpace=wrap;connectable=0;strokeColor=inherit;overflow=hidden;fillColor=none;top=0;left=0;bottom=0;right=0;pointerEvents=1;fontSize=16;" parent="406" vertex="1">
                    <mxGeometry width="77" height="40" as="geometry">
                        <mxRectangle width="77" height="40" as="alternateBounds"/>
                    </mxGeometry>
                </mxCell>
                <mxCell id="408" value="id_book_genre" style="shape=partialRectangle;html=1;whiteSpace=wrap;connectable=0;strokeColor=inherit;overflow=hidden;fillColor=none;top=0;left=0;bottom=0;right=0;pointerEvents=1;fontSize=16;" parent="406" vertex="1">
                    <mxGeometry x="77" width="114" height="40" as="geometry">
                        <mxRectangle width="114" height="40" as="alternateBounds"/>
                    </mxGeometry>
                </mxCell>
                <mxCell id="409" value="PK" style="shape=partialRectangle;html=1;whiteSpace=wrap;connectable=0;strokeColor=inherit;overflow=hidden;fillColor=none;top=0;left=0;bottom=0;right=0;pointerEvents=1;fontSize=16;" parent="406" vertex="1">
                    <mxGeometry x="191" width="49" height="40" as="geometry">
                        <mxRectangle width="49" height="40" as="alternateBounds"/>
                    </mxGeometry>
                </mxCell>
                <mxCell id="410" value="" style="shape=tableRow;horizontal=0;startSize=0;swimlaneHead=0;swimlaneBody=0;strokeColor=inherit;top=0;left=0;bottom=0;right=0;collapsible=0;dropTarget=0;fillColor=none;points=[[0,0.5],[1,0.5]];portConstraint=eastwest;fontSize=16;" parent="405" vertex="1">
                    <mxGeometry y="70" width="240" height="40" as="geometry"/>
                </mxCell>
                <mxCell id="411" value="INTEGER" style="shape=partialRectangle;html=1;whiteSpace=wrap;connectable=0;strokeColor=inherit;overflow=hidden;fillColor=none;top=0;left=0;bottom=0;right=0;pointerEvents=1;fontSize=16;" parent="410" vertex="1">
                    <mxGeometry width="77" height="40" as="geometry">
                        <mxRectangle width="77" height="40" as="alternateBounds"/>
                    </mxGeometry>
                </mxCell>
                <mxCell id="412" value="id_book" style="shape=partialRectangle;html=1;whiteSpace=wrap;connectable=0;strokeColor=inherit;overflow=hidden;fillColor=none;top=0;left=0;bottom=0;right=0;pointerEvents=1;fontSize=16;" parent="410" vertex="1">
                    <mxGeometry x="77" width="114" height="40" as="geometry">
                        <mxRectangle width="114" height="40" as="alternateBounds"/>
                    </mxGeometry>
                </mxCell>
                <mxCell id="413" value="FK" style="shape=partialRectangle;html=1;whiteSpace=wrap;connectable=0;strokeColor=inherit;overflow=hidden;fillColor=none;top=0;left=0;bottom=0;right=0;pointerEvents=1;fontSize=16;" parent="410" vertex="1">
                    <mxGeometry x="191" width="49" height="40" as="geometry">
                        <mxRectangle width="49" height="40" as="alternateBounds"/>
                    </mxGeometry>
                </mxCell>
                <mxCell id="414" value="" style="shape=tableRow;horizontal=0;startSize=0;swimlaneHead=0;swimlaneBody=0;strokeColor=inherit;top=0;left=0;bottom=0;right=0;collapsible=0;dropTarget=0;fillColor=none;points=[[0,0.5],[1,0.5]];portConstraint=eastwest;fontSize=16;" parent="405" vertex="1">
                    <mxGeometry y="110" width="240" height="40" as="geometry"/>
                </mxCell>
                <mxCell id="415" value="INTEGER" style="shape=partialRectangle;html=1;whiteSpace=wrap;connectable=0;strokeColor=inherit;overflow=hidden;fillColor=none;top=0;left=0;bottom=0;right=0;pointerEvents=1;fontSize=16;" parent="414" vertex="1">
                    <mxGeometry width="77" height="40" as="geometry">
                        <mxRectangle width="77" height="40" as="alternateBounds"/>
                    </mxGeometry>
                </mxCell>
                <mxCell id="416" value="id_genre" style="shape=partialRectangle;html=1;whiteSpace=wrap;connectable=0;strokeColor=inherit;overflow=hidden;fillColor=none;top=0;left=0;bottom=0;right=0;pointerEvents=1;fontSize=16;" parent="414" vertex="1">
                    <mxGeometry x="77" width="114" height="40" as="geometry">
                        <mxRectangle width="114" height="40" as="alternateBounds"/>
                    </mxGeometry>
                </mxCell>
                <mxCell id="417" value="FK" style="shape=partialRectangle;html=1;whiteSpace=wrap;connectable=0;strokeColor=inherit;overflow=hidden;fillColor=none;top=0;left=0;bottom=0;right=0;pointerEvents=1;fontSize=16;" parent="414" vertex="1">
                    <mxGeometry x="191" width="49" height="40" as="geometry">
                        <mxRectangle width="49" height="40" as="alternateBounds"/>
                    </mxGeometry>
                </mxCell>
                <mxCell id="465" value="" style="endArrow=classic;html=1;entryX=0;entryY=0.5;entryDx=0;entryDy=0;fillColor=#b1ddf0;strokeColor=#10739e;strokeWidth=3;shadow=1;exitX=0;exitY=0.5;exitDx=0;exitDy=0;" parent="405" source="414" edge="1">
                    <mxGeometry width="50" height="50" relative="1" as="geometry">
                        <mxPoint x="139" y="240" as="sourcePoint"/>
                        <mxPoint x="-2" y="290" as="targetPoint"/>
                        <Array as="points">
                            <mxPoint x="-50" y="130"/>
                            <mxPoint x="-50" y="290"/>
                        </Array>
                    </mxGeometry>
                </mxCell>
                <mxCell id="418" value="BOOK_AUTHOR" style="shape=table;startSize=30;container=1;collapsible=0;childLayout=tableLayout;strokeColor=#9673a6;fontSize=16;fillColor=#e1d5e7;strokeWidth=2;perimeterSpacing=1;shadow=1;swimlaneFillColor=default;" parent="1" vertex="1">
                    <mxGeometry x="1990" y="1130" width="240" height="150" as="geometry"/>
                </mxCell>
                <mxCell id="419" value="" style="shape=tableRow;horizontal=0;startSize=0;swimlaneHead=0;swimlaneBody=0;strokeColor=inherit;top=0;left=0;bottom=0;right=0;collapsible=0;dropTarget=0;fillColor=none;points=[[0,0.5],[1,0.5]];portConstraint=eastwest;fontSize=16;" parent="418" vertex="1">
                    <mxGeometry y="30" width="240" height="40" as="geometry"/>
                </mxCell>
                <mxCell id="420" value="INTEGER" style="shape=partialRectangle;html=1;whiteSpace=wrap;connectable=0;strokeColor=inherit;overflow=hidden;fillColor=none;top=0;left=0;bottom=0;right=0;pointerEvents=1;fontSize=16;" parent="419" vertex="1">
                    <mxGeometry width="77" height="40" as="geometry">
                        <mxRectangle width="77" height="40" as="alternateBounds"/>
                    </mxGeometry>
                </mxCell>
                <mxCell id="421" value="id_book_author" style="shape=partialRectangle;html=1;whiteSpace=wrap;connectable=0;strokeColor=inherit;overflow=hidden;fillColor=none;top=0;left=0;bottom=0;right=0;pointerEvents=1;fontSize=16;" parent="419" vertex="1">
                    <mxGeometry x="77" width="114" height="40" as="geometry">
                        <mxRectangle width="114" height="40" as="alternateBounds"/>
                    </mxGeometry>
                </mxCell>
                <mxCell id="422" value="PK" style="shape=partialRectangle;html=1;whiteSpace=wrap;connectable=0;strokeColor=inherit;overflow=hidden;fillColor=none;top=0;left=0;bottom=0;right=0;pointerEvents=1;fontSize=16;" parent="419" vertex="1">
                    <mxGeometry x="191" width="49" height="40" as="geometry">
                        <mxRectangle width="49" height="40" as="alternateBounds"/>
                    </mxGeometry>
                </mxCell>
                <mxCell id="423" value="" style="shape=tableRow;horizontal=0;startSize=0;swimlaneHead=0;swimlaneBody=0;strokeColor=inherit;top=0;left=0;bottom=0;right=0;collapsible=0;dropTarget=0;fillColor=none;points=[[0,0.5],[1,0.5]];portConstraint=eastwest;fontSize=16;" parent="418" vertex="1">
                    <mxGeometry y="70" width="240" height="40" as="geometry"/>
                </mxCell>
                <mxCell id="424" value="INTEGER" style="shape=partialRectangle;html=1;whiteSpace=wrap;connectable=0;strokeColor=inherit;overflow=hidden;fillColor=none;top=0;left=0;bottom=0;right=0;pointerEvents=1;fontSize=16;" parent="423" vertex="1">
                    <mxGeometry width="77" height="40" as="geometry">
                        <mxRectangle width="77" height="40" as="alternateBounds"/>
                    </mxGeometry>
                </mxCell>
                <mxCell id="425" value="id_book" style="shape=partialRectangle;html=1;whiteSpace=wrap;connectable=0;strokeColor=inherit;overflow=hidden;fillColor=none;top=0;left=0;bottom=0;right=0;pointerEvents=1;fontSize=16;" parent="423" vertex="1">
                    <mxGeometry x="77" width="114" height="40" as="geometry">
                        <mxRectangle width="114" height="40" as="alternateBounds"/>
                    </mxGeometry>
                </mxCell>
                <mxCell id="426" value="FK" style="shape=partialRectangle;html=1;whiteSpace=wrap;connectable=0;strokeColor=inherit;overflow=hidden;fillColor=none;top=0;left=0;bottom=0;right=0;pointerEvents=1;fontSize=16;" parent="423" vertex="1">
                    <mxGeometry x="191" width="49" height="40" as="geometry">
                        <mxRectangle width="49" height="40" as="alternateBounds"/>
                    </mxGeometry>
                </mxCell>
                <mxCell id="427" value="" style="shape=tableRow;horizontal=0;startSize=0;swimlaneHead=0;swimlaneBody=0;strokeColor=inherit;top=0;left=0;bottom=0;right=0;collapsible=0;dropTarget=0;fillColor=none;points=[[0,0.5],[1,0.5]];portConstraint=eastwest;fontSize=16;" parent="418" vertex="1">
                    <mxGeometry y="110" width="240" height="40" as="geometry"/>
                </mxCell>
                <mxCell id="428" value="INTEGER" style="shape=partialRectangle;html=1;whiteSpace=wrap;connectable=0;strokeColor=inherit;overflow=hidden;fillColor=none;top=0;left=0;bottom=0;right=0;pointerEvents=1;fontSize=16;" parent="427" vertex="1">
                    <mxGeometry width="77" height="40" as="geometry">
                        <mxRectangle width="77" height="40" as="alternateBounds"/>
                    </mxGeometry>
                </mxCell>
                <mxCell id="429" value="id_author" style="shape=partialRectangle;html=1;whiteSpace=wrap;connectable=0;strokeColor=inherit;overflow=hidden;fillColor=none;top=0;left=0;bottom=0;right=0;pointerEvents=1;fontSize=16;" parent="427" vertex="1">
                    <mxGeometry x="77" width="114" height="40" as="geometry">
                        <mxRectangle width="114" height="40" as="alternateBounds"/>
                    </mxGeometry>
                </mxCell>
                <mxCell id="430" value="FK" style="shape=partialRectangle;html=1;whiteSpace=wrap;connectable=0;strokeColor=inherit;overflow=hidden;fillColor=none;top=0;left=0;bottom=0;right=0;pointerEvents=1;fontSize=16;" parent="427" vertex="1">
                    <mxGeometry x="191" width="49" height="40" as="geometry">
                        <mxRectangle width="49" height="40" as="alternateBounds"/>
                    </mxGeometry>
                </mxCell>
                <mxCell id="464" value="" style="endArrow=classic;html=1;entryX=0;entryY=0.5;entryDx=0;entryDy=0;fillColor=#eeeeee;strokeColor=#36393d;strokeWidth=3;shadow=1;exitX=0;exitY=0.5;exitDx=0;exitDy=0;" parent="418" source="427" edge="1">
                    <mxGeometry width="50" height="50" relative="1" as="geometry">
                        <mxPoint x="-350" y="120" as="sourcePoint"/>
                        <mxPoint y="290" as="targetPoint"/>
                        <Array as="points">
                            <mxPoint x="-70" y="130"/>
                            <mxPoint x="-70" y="190"/>
                            <mxPoint x="-70" y="290"/>
                        </Array>
                    </mxGeometry>
                </mxCell>
                <mxCell id="486" style="edgeStyle=none;html=1;exitX=-0.01;exitY=0.763;exitDx=0;exitDy=0;exitPerimeter=0;fillColor=#d5e8d4;strokeColor=#82b366;strokeWidth=3;shadow=1;entryX=-0.01;entryY=0.763;entryDx=0;entryDy=0;entryPerimeter=0;" parent="1" target="53" edge="1">
                    <mxGeometry relative="1" as="geometry">
                        <mxPoint x="280" y="260" as="sourcePoint"/>
                        <mxPoint x="120" y="410" as="targetPoint"/>
                        <Array as="points">
                            <mxPoint x="120" y="260"/>
                            <mxPoint x="120" y="410"/>
                        </Array>
                    </mxGeometry>
                </mxCell>
                <mxCell id="326" value="" style="endArrow=classic;html=1;exitX=0;exitY=0.5;exitDx=0;exitDy=0;fillColor=#ffe6cc;strokeColor=#d79b00;strokeWidth=3;shadow=1;entryX=1.004;entryY=0.832;entryDx=0;entryDy=0;entryPerimeter=0;" parent="1" source="295" target="157" edge="1">
                    <mxGeometry width="50" height="50" relative="1" as="geometry">
                        <mxPoint x="1760" y="940" as="sourcePoint"/>
                        <mxPoint x="1160" y="1150" as="targetPoint"/>
                        <Array as="points">
                            <mxPoint x="1720" y="921"/>
                            <mxPoint x="1720" y="800"/>
                            <mxPoint x="2130" y="800"/>
                            <mxPoint x="2132" y="366"/>
                        </Array>
                    </mxGeometry>
                </mxCell>
                <mxCell id="461" value="" style="endArrow=classic;html=1;exitX=1.002;exitY=0.89;exitDx=0;exitDy=0;fillColor=#e1d5e7;strokeColor=#9673a6;strokeWidth=3;shadow=1;exitPerimeter=0;entryX=1.002;entryY=0.743;entryDx=0;entryDy=0;entryPerimeter=0;" parent="1" target="91" edge="1">
                    <mxGeometry width="50" height="50" relative="1" as="geometry">
                        <mxPoint x="1990" y="1220" as="sourcePoint"/>
                        <mxPoint x="2130" y="1129" as="targetPoint"/>
                        <Array as="points">
                            <mxPoint x="1922" y="1219"/>
                            <mxPoint x="1921" y="1188"/>
                        </Array>
                    </mxGeometry>
                </mxCell>
                <mxCell id="489" style="edgeStyle=none;html=1;exitX=0.999;exitY=0.657;exitDx=0;exitDy=0;exitPerimeter=0;strokeWidth=3;fillColor=#ffe6cc;strokeColor=#d79b00;shadow=1;entryX=0.998;entryY=0.261;entryDx=0;entryDy=0;entryPerimeter=0;" parent="1" source="261" target="157" edge="1">
                    <mxGeometry relative="1" as="geometry">
                        <Array as="points">
                            <mxPoint x="1177" y="1351"/>
                            <mxPoint x="1177" y="1537"/>
                            <mxPoint x="2600" y="1540"/>
                            <mxPoint x="2600" y="346"/>
                        </Array>
                        <mxPoint x="1120" y="1330" as="sourcePoint"/>
                    </mxGeometry>
                </mxCell>
                <mxCell id="331" value="" style="endArrow=classic;html=1;exitX=0;exitY=0.5;exitDx=0;exitDy=0;fillColor=#fff2cc;strokeColor=#d6b656;strokeWidth=3;shadow=1;entryX=1.004;entryY=0.194;entryDx=0;entryDy=0;entryPerimeter=0;" parent="1" source="161" target="124" edge="1">
                    <mxGeometry width="50" height="50" relative="1" as="geometry">
                        <mxPoint x="1780" y="310" as="sourcePoint"/>
                        <mxPoint x="1710" y="440" as="targetPoint"/>
                        <Array as="points">
                            <mxPoint x="1716" y="387"/>
                            <mxPoint x="1716" y="342"/>
                        </Array>
                    </mxGeometry>
                </mxCell>
                <mxCell id="328" value="" style="endArrow=classic;html=1;fillColor=#fff2cc;strokeColor=#d6b656;strokeWidth=3;shadow=1;entryX=1;entryY=0.5;entryDx=0;entryDy=0;exitX=-0.001;exitY=0.535;exitDx=0;exitDy=0;exitPerimeter=0;" parent="1" source="312" target="124" edge="1">
                    <mxGeometry width="50" height="50" relative="1" as="geometry">
                        <mxPoint x="1650" y="800" as="sourcePoint"/>
                        <mxPoint x="1360" y="730" as="targetPoint"/>
                        <Array as="points">
                            <mxPoint x="1279" y="912"/>
                            <mxPoint x="1277" y="673"/>
                            <mxPoint x="1698" y="673"/>
                            <mxPoint x="1697" y="355"/>
                        </Array>
                    </mxGeometry>
                </mxCell>
                <mxCell id="329" value="" style="endArrow=classic;html=1;entryX=0;entryY=0.263;entryDx=0;entryDy=0;exitX=-0.002;exitY=0.382;exitDx=0;exitDy=0;fillColor=#e1d5e7;strokeColor=#9673a6;strokeWidth=3;shadow=1;entryPerimeter=0;exitPerimeter=0;" parent="1" source="316" target="91" edge="1">
                    <mxGeometry width="50" height="50" relative="1" as="geometry">
                        <mxPoint x="1210" y="1100" as="sourcePoint"/>
                        <mxPoint x="1160" y="1150" as="targetPoint"/>
                        <Array as="points">
                            <mxPoint x="1278" y="941"/>
                            <mxPoint x="1279" y="1081"/>
                            <mxPoint x="1530" y="1080"/>
                            <mxPoint x="1530" y="1170"/>
                        </Array>
                    </mxGeometry>
                </mxCell>
                <mxCell id="337" value="" style="endArrow=classic;html=1;entryX=0;entryY=0.5;entryDx=0;entryDy=0;fillColor=#e1d5e7;strokeColor=#9673a6;strokeWidth=3;shadow=1;" parent="1" target="91" edge="1">
                    <mxGeometry width="50" height="50" relative="1" as="geometry">
                        <mxPoint x="1153" y="966" as="sourcePoint"/>
                        <mxPoint x="1160" y="1150" as="targetPoint"/>
                        <Array as="points">
                            <mxPoint x="1173" y="966"/>
                            <mxPoint x="1175" y="1118"/>
                            <mxPoint x="1520" y="1120"/>
                            <mxPoint x="1520" y="1180"/>
                        </Array>
                    </mxGeometry>
                </mxCell>
                <mxCell id="334" value="" style="endArrow=classic;html=1;exitX=1.002;exitY=0.724;exitDx=0;exitDy=0;entryX=0;entryY=0.789;entryDx=0;entryDy=0;entryPerimeter=0;fillColor=#e1d5e7;strokeColor=#9673a6;strokeWidth=3;shadow=1;exitPerimeter=0;" parent="1" source="265" target="91" edge="1">
                    <mxGeometry width="50" height="50" relative="1" as="geometry">
                        <mxPoint x="1540" y="1230" as="sourcePoint"/>
                        <mxPoint x="1160" y="1150" as="targetPoint"/>
                        <Array as="points">
                            <mxPoint x="1519" y="1325"/>
                            <mxPoint x="1520" y="1250"/>
                            <mxPoint x="1520" y="1190"/>
                        </Array>
                    </mxGeometry>
                </mxCell>
                <mxCell id="332" value="" style="endArrow=classic;html=1;fillColor=#fad9d5;strokeColor=#ae4132;entryX=1;entryY=0.5;entryDx=0;entryDy=0;strokeWidth=3;shadow=1;exitX=0;exitY=0.5;exitDx=0;exitDy=0;" parent="1" source="220" target="3" edge="1">
                    <mxGeometry width="50" height="50" relative="1" as="geometry">
                        <mxPoint x="1040" y="850" as="sourcePoint"/>
                        <mxPoint x="1120" y="672" as="targetPoint"/>
                        <Array as="points">
                            <mxPoint x="821" y="936"/>
                            <mxPoint x="821" y="840"/>
                            <mxPoint x="1268" y="840"/>
                            <mxPoint x="1270" y="630"/>
                            <mxPoint x="1325" y="628"/>
                            <mxPoint x="1324" y="354"/>
                        </Array>
                    </mxGeometry>
                </mxCell>
                <mxCell id="333" value="" style="endArrow=classic;html=1;fillColor=#fad9d5;strokeColor=#ae4132;strokeWidth=3;shadow=1;exitX=0;exitY=0.343;exitDx=0;exitDy=0;exitPerimeter=0;" parent="1" source="257" edge="1">
                    <mxGeometry width="50" height="50" relative="1" as="geometry">
                        <mxPoint x="1210" y="1100" as="sourcePoint"/>
                        <mxPoint x="1241" y="368" as="targetPoint"/>
                        <Array as="points">
                            <mxPoint x="798" y="1282"/>
                            <mxPoint x="800" y="1170"/>
                            <mxPoint x="799" y="827"/>
                            <mxPoint x="1260" y="829"/>
                            <mxPoint x="1260" y="620"/>
                            <mxPoint x="1310" y="620"/>
                            <mxPoint x="1309" y="369"/>
                        </Array>
                    </mxGeometry>
                </mxCell>
                <mxCell id="484" style="edgeStyle=none;html=1;exitX=0;exitY=0.5;exitDx=0;exitDy=0;fillColor=#f8cecc;strokeColor=#b85450;strokeWidth=3;shadow=1;" parent="1" source="194" edge="1">
                    <mxGeometry relative="1" as="geometry">
                        <Array as="points">
                            <mxPoint x="770" y="250"/>
                            <mxPoint x="770" y="347"/>
                        </Array>
                        <mxPoint x="958" y="348" as="targetPoint"/>
                    </mxGeometry>
                </mxCell>
                <mxCell id="498" value="" style="endArrow=classic;html=1;entryX=0;entryY=0.75;entryDx=0;entryDy=0;fillColor=#dae8fc;strokeColor=#6c8ebf;strokeWidth=3;shadow=1;entryPerimeter=0;" parent="1" target="190" edge="1">
                    <mxGeometry width="50" height="50" relative="1" as="geometry">
                        <mxPoint x="959" y="384" as="sourcePoint"/>
                        <mxPoint x="980" y="610" as="targetPoint"/>
                        <Array as="points">
                            <mxPoint x="750" y="383"/>
                            <mxPoint x="750" y="220"/>
                        </Array>
                    </mxGeometry>
                </mxCell>
                <mxCell id="487" style="edgeStyle=none;html=1;entryX=0.993;entryY=0.388;entryDx=0;entryDy=0;exitX=1.001;exitY=0.602;exitDx=0;exitDy=0;entryPerimeter=0;exitPerimeter=0;fillColor=#dae8fc;strokeColor=#6c8ebf;strokeWidth=3;shadow=1;" parent="1" source="70" target="28" edge="1">
                    <mxGeometry relative="1" as="geometry">
                        <Array as="points">
                            <mxPoint x="680" y="220"/>
                            <mxPoint x="730" y="220"/>
                            <mxPoint x="730" y="320"/>
                            <mxPoint x="730" y="405"/>
                        </Array>
                    </mxGeometry>
                </mxCell>
                <mxCell id="528" value="&lt;b&gt;&lt;font style=&quot;font-size: 18px;&quot;&gt;INDEX&lt;/font&gt;&lt;/b&gt;" style="text;html=1;align=center;verticalAlign=middle;resizable=0;points=[];autosize=1;strokeColor=none;fillColor=none;" parent="1" vertex="1">
                    <mxGeometry x="173.5" y="698" width="73" height="34" as="geometry"/>
                </mxCell>
                <mxCell id="488" style="edgeStyle=none;html=1;entryX=0.994;entryY=0.693;entryDx=0;entryDy=0;fillColor=#dae8fc;strokeColor=#6c8ebf;strokeWidth=3;shadow=1;exitX=0;exitY=0.5;exitDx=0;exitDy=0;entryPerimeter=0;" parent="1" source="190" target="28" edge="1">
                    <mxGeometry relative="1" as="geometry">
                        <Array as="points">
                            <mxPoint x="740" y="210"/>
                            <mxPoint x="740" y="419"/>
                        </Array>
                        <mxPoint x="711" y="410" as="targetPoint"/>
                    </mxGeometry>
                </mxCell>
                <mxCell id="327" value="" style="endArrow=classic;html=1;fillColor=#e1d5e7;strokeColor=#9673a6;strokeWidth=3;shadow=1;entryX=1.003;entryY=0.239;entryDx=0;entryDy=0;exitX=0;exitY=0.5;exitDx=0;exitDy=0;entryPerimeter=0;" parent="1" source="299" target="91" edge="1">
                    <mxGeometry width="50" height="50" relative="1" as="geometry">
                        <mxPoint x="1760" y="1130" as="sourcePoint"/>
                        <mxPoint x="1840" y="1170" as="targetPoint"/>
                        <Array as="points">
                            <mxPoint x="1718" y="961"/>
                            <mxPoint x="1716" y="1078"/>
                            <mxPoint x="1911" y="1080"/>
                            <mxPoint x="1912" y="1169"/>
                        </Array>
                    </mxGeometry>
                </mxCell>
                <mxCell id="460" value="" style="endArrow=classic;html=1;fillColor=#e1d5e7;strokeColor=#9673a6;strokeWidth=3;shadow=1;exitX=0;exitY=0.25;exitDx=0;exitDy=0;exitPerimeter=0;" parent="1" source="410" edge="1">
                    <mxGeometry width="50" height="50" relative="1" as="geometry">
                        <mxPoint x="2261" y="1412" as="sourcePoint"/>
                        <mxPoint x="1882" y="1178" as="targetPoint"/>
                        <Array as="points">
                            <mxPoint x="2280" y="1210"/>
                            <mxPoint x="2280" y="1080"/>
                            <mxPoint x="1950" y="1080"/>
                            <mxPoint x="1951" y="1178"/>
                        </Array>
                    </mxGeometry>
                </mxCell>
                <mxCell id="540" value="" style="endArrow=classic;html=1;fillColor=#fad9d5;strokeColor=#ae4132;strokeWidth=3;shadow=1;entryX=0.979;entryY=0.305;entryDx=0;entryDy=0;entryPerimeter=0;" parent="1" target="3" edge="1">
                    <mxGeometry width="50" height="50" relative="1" as="geometry">
                        <mxPoint x="2214" y="421" as="sourcePoint"/>
                        <mxPoint x="1253" y="345" as="targetPoint"/>
                        <Array as="points">
                            <mxPoint x="2088" y="421"/>
                            <mxPoint x="2214" y="421"/>
                            <mxPoint x="2214" y="251"/>
                            <mxPoint x="1329" y="251"/>
                        </Array>
                    </mxGeometry>
                </mxCell>
            </root>
        </mxGraphModel>
    </diagram>
</mxfile>